<mxfile host="Electron" agent="Mozilla/5.0 (Macintosh; Intel Mac OS X 10_15_7) AppleWebKit/537.36 (KHTML, like Gecko) draw.io/23.0.2 Chrome/120.0.6099.109 Electron/28.1.0 Safari/537.36" modified="2025-06-07T16:53:15.122Z" etag="NEMxB8TujNT9g0yFZr37" version="23.0.2" type="device">
  <diagram name="Page-1" id="nRCVy1tVzfPcufb46SMT">
    <mxGraphModel dx="530" dy="1543" grid="1" gridSize="10" guides="1" tooltips="1" connect="1" arrows="1" fold="1" page="1" pageScale="1" pageWidth="827" pageHeight="1169" math="0" shadow="0">
      <root>
        <mxCell id="0" />
        <mxCell id="1" parent="0" />
        <mxCell id="NboHHmUT9w5Wk8Y239MS-114" value="" style="group" parent="1" vertex="1" connectable="0">
          <mxGeometry x="200" y="400" width="520" height="160" as="geometry" />
        </mxCell>
        <mxCell id="NboHHmUT9w5Wk8Y239MS-8" value="" style="group" parent="NboHHmUT9w5Wk8Y239MS-114" vertex="1" connectable="0">
          <mxGeometry width="40" height="40" as="geometry" />
        </mxCell>
        <mxCell id="NboHHmUT9w5Wk8Y239MS-6" value="" style="whiteSpace=wrap;html=1;aspect=fixed;rounded=1;shadow=0;fillColor=#f5f5f5;fontColor=#333333;strokeColor=#666666;" parent="NboHHmUT9w5Wk8Y239MS-8" vertex="1">
          <mxGeometry width="40" height="40" as="geometry" />
        </mxCell>
        <mxCell id="NboHHmUT9w5Wk8Y239MS-7" value="1" style="whiteSpace=wrap;html=1;aspect=fixed;rounded=1;shadow=0;fontSize=6;fontStyle=1" parent="NboHHmUT9w5Wk8Y239MS-8" vertex="1">
          <mxGeometry x="5" y="5" width="30" height="30" as="geometry" />
        </mxCell>
        <mxCell id="NboHHmUT9w5Wk8Y239MS-9" value="" style="group" parent="NboHHmUT9w5Wk8Y239MS-114" vertex="1" connectable="0">
          <mxGeometry x="40" width="40" height="40" as="geometry" />
        </mxCell>
        <mxCell id="NboHHmUT9w5Wk8Y239MS-10" value="" style="whiteSpace=wrap;html=1;aspect=fixed;rounded=1;shadow=0;fillColor=#f5f5f5;fontColor=#333333;strokeColor=#666666;" parent="NboHHmUT9w5Wk8Y239MS-9" vertex="1">
          <mxGeometry width="40" height="40" as="geometry" />
        </mxCell>
        <mxCell id="NboHHmUT9w5Wk8Y239MS-11" value="2" style="whiteSpace=wrap;html=1;aspect=fixed;rounded=1;shadow=0;fontSize=6;fontStyle=1" parent="NboHHmUT9w5Wk8Y239MS-9" vertex="1">
          <mxGeometry x="5" y="5" width="30" height="30" as="geometry" />
        </mxCell>
        <mxCell id="NboHHmUT9w5Wk8Y239MS-12" value="" style="group" parent="NboHHmUT9w5Wk8Y239MS-114" vertex="1" connectable="0">
          <mxGeometry x="80" width="40" height="40" as="geometry" />
        </mxCell>
        <mxCell id="NboHHmUT9w5Wk8Y239MS-13" value="" style="whiteSpace=wrap;html=1;aspect=fixed;rounded=1;shadow=0;fillColor=#f5f5f5;fontColor=#333333;strokeColor=#666666;" parent="NboHHmUT9w5Wk8Y239MS-12" vertex="1">
          <mxGeometry width="40" height="40" as="geometry" />
        </mxCell>
        <mxCell id="NboHHmUT9w5Wk8Y239MS-14" value="3" style="whiteSpace=wrap;html=1;aspect=fixed;rounded=1;shadow=0;fontSize=6;fontStyle=1" parent="NboHHmUT9w5Wk8Y239MS-12" vertex="1">
          <mxGeometry x="5" y="5" width="30" height="30" as="geometry" />
        </mxCell>
        <mxCell id="NboHHmUT9w5Wk8Y239MS-15" value="" style="group" parent="NboHHmUT9w5Wk8Y239MS-114" vertex="1" connectable="0">
          <mxGeometry x="120" width="40" height="40" as="geometry" />
        </mxCell>
        <mxCell id="NboHHmUT9w5Wk8Y239MS-16" value="" style="whiteSpace=wrap;html=1;aspect=fixed;rounded=1;shadow=0;fillColor=#f5f5f5;fontColor=#333333;strokeColor=#666666;" parent="NboHHmUT9w5Wk8Y239MS-15" vertex="1">
          <mxGeometry width="40" height="40" as="geometry" />
        </mxCell>
        <mxCell id="NboHHmUT9w5Wk8Y239MS-17" value="4" style="whiteSpace=wrap;html=1;aspect=fixed;rounded=1;shadow=0;fontSize=6;fontStyle=1" parent="NboHHmUT9w5Wk8Y239MS-15" vertex="1">
          <mxGeometry x="5" y="5" width="30" height="30" as="geometry" />
        </mxCell>
        <mxCell id="NboHHmUT9w5Wk8Y239MS-18" value="" style="group" parent="NboHHmUT9w5Wk8Y239MS-114" vertex="1" connectable="0">
          <mxGeometry x="160" width="40" height="40" as="geometry" />
        </mxCell>
        <mxCell id="NboHHmUT9w5Wk8Y239MS-19" value="" style="whiteSpace=wrap;html=1;aspect=fixed;rounded=1;shadow=0;fillColor=#f5f5f5;fontColor=#333333;strokeColor=#666666;" parent="NboHHmUT9w5Wk8Y239MS-18" vertex="1">
          <mxGeometry width="40" height="40" as="geometry" />
        </mxCell>
        <mxCell id="NboHHmUT9w5Wk8Y239MS-20" value="5" style="whiteSpace=wrap;html=1;aspect=fixed;rounded=1;shadow=0;fontSize=6;fontStyle=1" parent="NboHHmUT9w5Wk8Y239MS-18" vertex="1">
          <mxGeometry x="5" y="5" width="30" height="30" as="geometry" />
        </mxCell>
        <mxCell id="NboHHmUT9w5Wk8Y239MS-21" value="" style="group" parent="NboHHmUT9w5Wk8Y239MS-114" vertex="1" connectable="0">
          <mxGeometry x="40" y="40" width="40" height="40" as="geometry" />
        </mxCell>
        <mxCell id="NboHHmUT9w5Wk8Y239MS-22" value="" style="whiteSpace=wrap;html=1;aspect=fixed;rounded=1;shadow=0;fillColor=#f5f5f5;fontColor=#333333;strokeColor=#666666;" parent="NboHHmUT9w5Wk8Y239MS-21" vertex="1">
          <mxGeometry width="40" height="40" as="geometry" />
        </mxCell>
        <mxCell id="NboHHmUT9w5Wk8Y239MS-23" value="" style="whiteSpace=wrap;html=1;aspect=fixed;rounded=1;shadow=0;fontSize=6;fontStyle=1" parent="NboHHmUT9w5Wk8Y239MS-21" vertex="1">
          <mxGeometry x="5" y="5" width="30" height="30" as="geometry" />
        </mxCell>
        <mxCell id="NboHHmUT9w5Wk8Y239MS-24" value="" style="group" parent="NboHHmUT9w5Wk8Y239MS-114" vertex="1" connectable="0">
          <mxGeometry y="40" width="40" height="40" as="geometry" />
        </mxCell>
        <mxCell id="NboHHmUT9w5Wk8Y239MS-25" value="" style="whiteSpace=wrap;html=1;aspect=fixed;rounded=1;shadow=0;fillColor=#f5f5f5;fontColor=#333333;strokeColor=#666666;" parent="NboHHmUT9w5Wk8Y239MS-24" vertex="1">
          <mxGeometry width="40" height="40" as="geometry" />
        </mxCell>
        <mxCell id="NboHHmUT9w5Wk8Y239MS-26" value="" style="whiteSpace=wrap;html=1;aspect=fixed;rounded=1;shadow=0;fontSize=6;fontStyle=1" parent="NboHHmUT9w5Wk8Y239MS-24" vertex="1">
          <mxGeometry x="5" y="5" width="30" height="30" as="geometry" />
        </mxCell>
        <mxCell id="NboHHmUT9w5Wk8Y239MS-27" value="" style="group" parent="NboHHmUT9w5Wk8Y239MS-114" vertex="1" connectable="0">
          <mxGeometry x="120" y="40" width="40" height="40" as="geometry" />
        </mxCell>
        <mxCell id="NboHHmUT9w5Wk8Y239MS-28" value="" style="whiteSpace=wrap;html=1;aspect=fixed;rounded=1;shadow=0;fillColor=#f5f5f5;fontColor=#333333;strokeColor=#666666;" parent="NboHHmUT9w5Wk8Y239MS-27" vertex="1">
          <mxGeometry width="40" height="40" as="geometry" />
        </mxCell>
        <mxCell id="NboHHmUT9w5Wk8Y239MS-29" value="-" style="whiteSpace=wrap;html=1;aspect=fixed;rounded=1;shadow=0;fontSize=6;fontStyle=1" parent="NboHHmUT9w5Wk8Y239MS-27" vertex="1">
          <mxGeometry x="5" y="5" width="30" height="30" as="geometry" />
        </mxCell>
        <mxCell id="NboHHmUT9w5Wk8Y239MS-30" value="" style="group" parent="NboHHmUT9w5Wk8Y239MS-114" vertex="1" connectable="0">
          <mxGeometry x="160" y="40" width="40" height="40" as="geometry" />
        </mxCell>
        <mxCell id="NboHHmUT9w5Wk8Y239MS-31" value="" style="whiteSpace=wrap;html=1;aspect=fixed;rounded=1;shadow=0;fillColor=#f5f5f5;fontColor=#333333;strokeColor=#666666;" parent="NboHHmUT9w5Wk8Y239MS-30" vertex="1">
          <mxGeometry width="40" height="40" as="geometry" />
        </mxCell>
        <mxCell id="NboHHmUT9w5Wk8Y239MS-32" value="+" style="whiteSpace=wrap;html=1;aspect=fixed;rounded=1;shadow=0;fontSize=6;fontStyle=1" parent="NboHHmUT9w5Wk8Y239MS-30" vertex="1">
          <mxGeometry x="5" y="5" width="30" height="30" as="geometry" />
        </mxCell>
        <mxCell id="NboHHmUT9w5Wk8Y239MS-33" value="" style="group" parent="NboHHmUT9w5Wk8Y239MS-114" vertex="1" connectable="0">
          <mxGeometry x="80" y="40" width="40" height="40" as="geometry" />
        </mxCell>
        <mxCell id="NboHHmUT9w5Wk8Y239MS-34" value="" style="whiteSpace=wrap;html=1;aspect=fixed;rounded=1;shadow=0;fillColor=#f5f5f5;fontColor=#333333;strokeColor=#666666;" parent="NboHHmUT9w5Wk8Y239MS-33" vertex="1">
          <mxGeometry width="40" height="40" as="geometry" />
        </mxCell>
        <mxCell id="NboHHmUT9w5Wk8Y239MS-35" value="" style="whiteSpace=wrap;html=1;aspect=fixed;rounded=1;shadow=0;fontSize=6;fontStyle=1" parent="NboHHmUT9w5Wk8Y239MS-33" vertex="1">
          <mxGeometry x="5" y="5" width="30" height="30" as="geometry" />
        </mxCell>
        <mxCell id="NboHHmUT9w5Wk8Y239MS-36" value="" style="group" parent="NboHHmUT9w5Wk8Y239MS-114" vertex="1" connectable="0">
          <mxGeometry x="80" y="80" width="80" height="40" as="geometry" />
        </mxCell>
        <mxCell id="NboHHmUT9w5Wk8Y239MS-37" value="" style="whiteSpace=wrap;html=1;aspect=fixed;rounded=1;shadow=0;fillColor=#f5f5f5;fontColor=#333333;strokeColor=#666666;" parent="NboHHmUT9w5Wk8Y239MS-36" vertex="1">
          <mxGeometry width="40" height="40" as="geometry" />
        </mxCell>
        <mxCell id="NboHHmUT9w5Wk8Y239MS-38" value="" style="whiteSpace=wrap;html=1;aspect=fixed;rounded=1;shadow=0;fontSize=6;fontStyle=1" parent="NboHHmUT9w5Wk8Y239MS-36" vertex="1">
          <mxGeometry x="5" y="5" width="30" height="30" as="geometry" />
        </mxCell>
        <mxCell id="NboHHmUT9w5Wk8Y239MS-39" value="" style="group" parent="NboHHmUT9w5Wk8Y239MS-36" vertex="1" connectable="0">
          <mxGeometry x="40" width="40" height="40" as="geometry" />
        </mxCell>
        <mxCell id="NboHHmUT9w5Wk8Y239MS-40" value="" style="whiteSpace=wrap;html=1;aspect=fixed;rounded=1;shadow=0;fillColor=#f5f5f5;fontColor=#333333;strokeColor=#666666;" parent="NboHHmUT9w5Wk8Y239MS-39" vertex="1">
          <mxGeometry width="40" height="40" as="geometry" />
        </mxCell>
        <mxCell id="NboHHmUT9w5Wk8Y239MS-41" value="=" style="whiteSpace=wrap;html=1;aspect=fixed;rounded=1;shadow=0;fontSize=6;fontStyle=1" parent="NboHHmUT9w5Wk8Y239MS-39" vertex="1">
          <mxGeometry x="5" y="5" width="30" height="30" as="geometry" />
        </mxCell>
        <mxCell id="NboHHmUT9w5Wk8Y239MS-42" value="" style="group" parent="NboHHmUT9w5Wk8Y239MS-114" vertex="1" connectable="0">
          <mxGeometry x="160" y="80" width="40" height="40" as="geometry" />
        </mxCell>
        <mxCell id="NboHHmUT9w5Wk8Y239MS-43" value="" style="whiteSpace=wrap;html=1;aspect=fixed;rounded=1;shadow=0;fillColor=#f5f5f5;fontColor=#333333;strokeColor=#666666;" parent="NboHHmUT9w5Wk8Y239MS-42" vertex="1">
          <mxGeometry width="40" height="40" as="geometry" />
        </mxCell>
        <mxCell id="NboHHmUT9w5Wk8Y239MS-44" value="." style="whiteSpace=wrap;html=1;aspect=fixed;rounded=1;shadow=0;fontSize=6;fontStyle=1" parent="NboHHmUT9w5Wk8Y239MS-42" vertex="1">
          <mxGeometry x="5" y="5" width="30" height="30" as="geometry" />
        </mxCell>
        <mxCell id="NboHHmUT9w5Wk8Y239MS-45" value="" style="group" parent="NboHHmUT9w5Wk8Y239MS-114" vertex="1" connectable="0">
          <mxGeometry x="40" y="80" width="40" height="40" as="geometry" />
        </mxCell>
        <mxCell id="NboHHmUT9w5Wk8Y239MS-46" value="" style="whiteSpace=wrap;html=1;aspect=fixed;rounded=1;shadow=0;fillColor=#f5f5f5;fontColor=#333333;strokeColor=#666666;" parent="NboHHmUT9w5Wk8Y239MS-45" vertex="1">
          <mxGeometry width="40" height="40" as="geometry" />
        </mxCell>
        <mxCell id="NboHHmUT9w5Wk8Y239MS-47" value="" style="whiteSpace=wrap;html=1;aspect=fixed;rounded=1;shadow=0;fontSize=6;fontStyle=1" parent="NboHHmUT9w5Wk8Y239MS-45" vertex="1">
          <mxGeometry x="5" y="5" width="30" height="30" as="geometry" />
        </mxCell>
        <mxCell id="NboHHmUT9w5Wk8Y239MS-48" value="" style="group" parent="NboHHmUT9w5Wk8Y239MS-114" vertex="1" connectable="0">
          <mxGeometry y="80" width="40" height="40" as="geometry" />
        </mxCell>
        <mxCell id="NboHHmUT9w5Wk8Y239MS-49" value="" style="whiteSpace=wrap;html=1;aspect=fixed;rounded=1;shadow=0;fillColor=#f5f5f5;fontColor=#333333;strokeColor=#666666;" parent="NboHHmUT9w5Wk8Y239MS-48" vertex="1">
          <mxGeometry width="40" height="40" as="geometry" />
        </mxCell>
        <mxCell id="NboHHmUT9w5Wk8Y239MS-50" value="" style="whiteSpace=wrap;html=1;aspect=fixed;rounded=1;shadow=0;fontSize=6;fontStyle=1" parent="NboHHmUT9w5Wk8Y239MS-48" vertex="1">
          <mxGeometry x="5" y="5" width="30" height="30" as="geometry" />
        </mxCell>
        <mxCell id="NboHHmUT9w5Wk8Y239MS-51" value="" style="group" parent="NboHHmUT9w5Wk8Y239MS-114" vertex="1" connectable="0">
          <mxGeometry x="120" y="120" width="40" height="40" as="geometry" />
        </mxCell>
        <mxCell id="NboHHmUT9w5Wk8Y239MS-52" value="" style="whiteSpace=wrap;html=1;aspect=fixed;rounded=1;shadow=0;fillColor=#f5f5f5;fontColor=#333333;strokeColor=#666666;" parent="NboHHmUT9w5Wk8Y239MS-51" vertex="1">
          <mxGeometry width="40" height="40" as="geometry" />
        </mxCell>
        <mxCell id="NboHHmUT9w5Wk8Y239MS-53" value="0" style="whiteSpace=wrap;html=1;aspect=fixed;rounded=1;shadow=0;fontSize=6;fontStyle=1" parent="NboHHmUT9w5Wk8Y239MS-51" vertex="1">
          <mxGeometry x="5" y="5" width="30" height="30" as="geometry" />
        </mxCell>
        <mxCell id="NboHHmUT9w5Wk8Y239MS-54" value="" style="group" parent="NboHHmUT9w5Wk8Y239MS-114" vertex="1" connectable="0">
          <mxGeometry x="160" y="120" width="40" height="40" as="geometry" />
        </mxCell>
        <mxCell id="NboHHmUT9w5Wk8Y239MS-55" value="" style="whiteSpace=wrap;html=1;aspect=fixed;rounded=1;shadow=0;fillColor=#f5f5f5;fontColor=#333333;strokeColor=#666666;" parent="NboHHmUT9w5Wk8Y239MS-54" vertex="1">
          <mxGeometry width="40" height="40" as="geometry" />
        </mxCell>
        <mxCell id="NboHHmUT9w5Wk8Y239MS-56" value="Enter" style="whiteSpace=wrap;html=1;aspect=fixed;rounded=1;shadow=0;fontSize=6;fontStyle=1" parent="NboHHmUT9w5Wk8Y239MS-54" vertex="1">
          <mxGeometry x="5" y="5" width="30" height="30" as="geometry" />
        </mxCell>
        <mxCell id="NboHHmUT9w5Wk8Y239MS-57" value="" style="group" parent="NboHHmUT9w5Wk8Y239MS-114" vertex="1" connectable="0">
          <mxGeometry x="200" y="120" width="40" height="40" as="geometry" />
        </mxCell>
        <mxCell id="NboHHmUT9w5Wk8Y239MS-58" value="" style="whiteSpace=wrap;html=1;aspect=fixed;rounded=1;shadow=0;fillColor=#f5f5f5;fontColor=#333333;strokeColor=#666666;" parent="NboHHmUT9w5Wk8Y239MS-57" vertex="1">
          <mxGeometry width="40" height="40" as="geometry" />
        </mxCell>
        <mxCell id="NboHHmUT9w5Wk8Y239MS-59" value="Backspace" style="whiteSpace=wrap;html=1;aspect=fixed;rounded=1;shadow=0;fontSize=6;fontStyle=1" parent="NboHHmUT9w5Wk8Y239MS-57" vertex="1">
          <mxGeometry x="5" y="5" width="30" height="30" as="geometry" />
        </mxCell>
        <mxCell id="NboHHmUT9w5Wk8Y239MS-60" value="" style="group" parent="NboHHmUT9w5Wk8Y239MS-114" vertex="1" connectable="0">
          <mxGeometry x="320" width="40" height="40" as="geometry" />
        </mxCell>
        <mxCell id="NboHHmUT9w5Wk8Y239MS-61" value="" style="whiteSpace=wrap;html=1;aspect=fixed;rounded=1;shadow=0;fillColor=#f5f5f5;fontColor=#333333;strokeColor=#666666;" parent="NboHHmUT9w5Wk8Y239MS-60" vertex="1">
          <mxGeometry width="40" height="40" as="geometry" />
        </mxCell>
        <mxCell id="NboHHmUT9w5Wk8Y239MS-62" value="6" style="whiteSpace=wrap;html=1;aspect=fixed;rounded=1;shadow=0;fontSize=6;fontStyle=1" parent="NboHHmUT9w5Wk8Y239MS-60" vertex="1">
          <mxGeometry x="5" y="5" width="30" height="30" as="geometry" />
        </mxCell>
        <mxCell id="NboHHmUT9w5Wk8Y239MS-63" value="" style="group" parent="NboHHmUT9w5Wk8Y239MS-114" vertex="1" connectable="0">
          <mxGeometry x="360" width="40" height="40" as="geometry" />
        </mxCell>
        <mxCell id="NboHHmUT9w5Wk8Y239MS-64" value="" style="whiteSpace=wrap;html=1;aspect=fixed;rounded=1;shadow=0;fillColor=#f5f5f5;fontColor=#333333;strokeColor=#666666;" parent="NboHHmUT9w5Wk8Y239MS-63" vertex="1">
          <mxGeometry width="40" height="40" as="geometry" />
        </mxCell>
        <mxCell id="NboHHmUT9w5Wk8Y239MS-65" value="7" style="whiteSpace=wrap;html=1;aspect=fixed;rounded=1;shadow=0;fontSize=6;fontStyle=1" parent="NboHHmUT9w5Wk8Y239MS-63" vertex="1">
          <mxGeometry x="5" y="5" width="30" height="30" as="geometry" />
        </mxCell>
        <mxCell id="NboHHmUT9w5Wk8Y239MS-66" value="" style="group" parent="NboHHmUT9w5Wk8Y239MS-114" vertex="1" connectable="0">
          <mxGeometry x="400" width="40" height="40" as="geometry" />
        </mxCell>
        <mxCell id="NboHHmUT9w5Wk8Y239MS-67" value="" style="whiteSpace=wrap;html=1;aspect=fixed;rounded=1;shadow=0;fillColor=#f5f5f5;fontColor=#333333;strokeColor=#666666;" parent="NboHHmUT9w5Wk8Y239MS-66" vertex="1">
          <mxGeometry width="40" height="40" as="geometry" />
        </mxCell>
        <mxCell id="NboHHmUT9w5Wk8Y239MS-68" value="8" style="whiteSpace=wrap;html=1;aspect=fixed;rounded=1;shadow=0;fontSize=6;fontStyle=1" parent="NboHHmUT9w5Wk8Y239MS-66" vertex="1">
          <mxGeometry x="5" y="5" width="30" height="30" as="geometry" />
        </mxCell>
        <mxCell id="NboHHmUT9w5Wk8Y239MS-69" value="" style="group" parent="NboHHmUT9w5Wk8Y239MS-114" vertex="1" connectable="0">
          <mxGeometry x="440" width="40" height="40" as="geometry" />
        </mxCell>
        <mxCell id="NboHHmUT9w5Wk8Y239MS-70" value="" style="whiteSpace=wrap;html=1;aspect=fixed;rounded=1;shadow=0;fillColor=#f5f5f5;fontColor=#333333;strokeColor=#666666;" parent="NboHHmUT9w5Wk8Y239MS-69" vertex="1">
          <mxGeometry width="40" height="40" as="geometry" />
        </mxCell>
        <mxCell id="NboHHmUT9w5Wk8Y239MS-71" value="9" style="whiteSpace=wrap;html=1;aspect=fixed;rounded=1;shadow=0;fontSize=6;fontStyle=1" parent="NboHHmUT9w5Wk8Y239MS-69" vertex="1">
          <mxGeometry x="5" y="5" width="30" height="30" as="geometry" />
        </mxCell>
        <mxCell id="NboHHmUT9w5Wk8Y239MS-72" value="" style="group" parent="NboHHmUT9w5Wk8Y239MS-114" vertex="1" connectable="0">
          <mxGeometry x="480" width="40" height="40" as="geometry" />
        </mxCell>
        <mxCell id="NboHHmUT9w5Wk8Y239MS-73" value="" style="whiteSpace=wrap;html=1;aspect=fixed;rounded=1;shadow=0;fillColor=#f5f5f5;fontColor=#333333;strokeColor=#666666;" parent="NboHHmUT9w5Wk8Y239MS-72" vertex="1">
          <mxGeometry width="40" height="40" as="geometry" />
        </mxCell>
        <mxCell id="NboHHmUT9w5Wk8Y239MS-74" value="0" style="whiteSpace=wrap;html=1;aspect=fixed;rounded=1;shadow=0;fontSize=6;fontStyle=1" parent="NboHHmUT9w5Wk8Y239MS-72" vertex="1">
          <mxGeometry x="5" y="5" width="30" height="30" as="geometry" />
        </mxCell>
        <mxCell id="NboHHmUT9w5Wk8Y239MS-75" value="" style="group" parent="NboHHmUT9w5Wk8Y239MS-114" vertex="1" connectable="0">
          <mxGeometry x="360" y="40" width="40" height="40" as="geometry" />
        </mxCell>
        <mxCell id="NboHHmUT9w5Wk8Y239MS-76" value="" style="whiteSpace=wrap;html=1;aspect=fixed;rounded=1;shadow=0;fillColor=#f5f5f5;fontColor=#333333;strokeColor=#666666;" parent="NboHHmUT9w5Wk8Y239MS-75" vertex="1">
          <mxGeometry width="40" height="40" as="geometry" />
        </mxCell>
        <mxCell id="NboHHmUT9w5Wk8Y239MS-77" value="*" style="whiteSpace=wrap;html=1;aspect=fixed;rounded=1;shadow=0;fontSize=6;fontStyle=1" parent="NboHHmUT9w5Wk8Y239MS-75" vertex="1">
          <mxGeometry x="5" y="5" width="30" height="30" as="geometry" />
        </mxCell>
        <mxCell id="NboHHmUT9w5Wk8Y239MS-78" value="" style="group" parent="NboHHmUT9w5Wk8Y239MS-114" vertex="1" connectable="0">
          <mxGeometry x="320" y="40" width="40" height="40" as="geometry" />
        </mxCell>
        <mxCell id="NboHHmUT9w5Wk8Y239MS-79" value="" style="whiteSpace=wrap;html=1;aspect=fixed;rounded=1;shadow=0;fillColor=#f5f5f5;fontColor=#333333;strokeColor=#666666;" parent="NboHHmUT9w5Wk8Y239MS-78" vertex="1">
          <mxGeometry width="40" height="40" as="geometry" />
        </mxCell>
        <mxCell id="NboHHmUT9w5Wk8Y239MS-80" value="/" style="whiteSpace=wrap;html=1;aspect=fixed;rounded=1;shadow=0;fontSize=6;fontStyle=1" parent="NboHHmUT9w5Wk8Y239MS-78" vertex="1">
          <mxGeometry x="5" y="5" width="30" height="30" as="geometry" />
        </mxCell>
        <mxCell id="NboHHmUT9w5Wk8Y239MS-81" value="" style="group" parent="NboHHmUT9w5Wk8Y239MS-114" vertex="1" connectable="0">
          <mxGeometry x="440" y="40" width="40" height="40" as="geometry" />
        </mxCell>
        <mxCell id="NboHHmUT9w5Wk8Y239MS-82" value="" style="whiteSpace=wrap;html=1;aspect=fixed;rounded=1;shadow=0;fillColor=#f5f5f5;fontColor=#333333;strokeColor=#666666;" parent="NboHHmUT9w5Wk8Y239MS-81" vertex="1">
          <mxGeometry width="40" height="40" as="geometry" />
        </mxCell>
        <mxCell id="NboHHmUT9w5Wk8Y239MS-83" value="" style="whiteSpace=wrap;html=1;aspect=fixed;rounded=1;shadow=0;fontSize=6;fontStyle=1" parent="NboHHmUT9w5Wk8Y239MS-81" vertex="1">
          <mxGeometry x="5" y="5" width="30" height="30" as="geometry" />
        </mxCell>
        <mxCell id="NboHHmUT9w5Wk8Y239MS-84" value="" style="group" parent="NboHHmUT9w5Wk8Y239MS-114" vertex="1" connectable="0">
          <mxGeometry x="480" y="40" width="40" height="40" as="geometry" />
        </mxCell>
        <mxCell id="NboHHmUT9w5Wk8Y239MS-85" value="" style="whiteSpace=wrap;html=1;aspect=fixed;rounded=1;shadow=0;fillColor=#f5f5f5;fontColor=#333333;strokeColor=#666666;" parent="NboHHmUT9w5Wk8Y239MS-84" vertex="1">
          <mxGeometry width="40" height="40" as="geometry" />
        </mxCell>
        <mxCell id="NboHHmUT9w5Wk8Y239MS-86" value="" style="whiteSpace=wrap;html=1;aspect=fixed;rounded=1;shadow=0;fontSize=6;fontStyle=1" parent="NboHHmUT9w5Wk8Y239MS-84" vertex="1">
          <mxGeometry x="5" y="5" width="30" height="30" as="geometry" />
        </mxCell>
        <mxCell id="NboHHmUT9w5Wk8Y239MS-87" value="" style="group" parent="NboHHmUT9w5Wk8Y239MS-114" vertex="1" connectable="0">
          <mxGeometry x="400" y="40" width="40" height="40" as="geometry" />
        </mxCell>
        <mxCell id="NboHHmUT9w5Wk8Y239MS-88" value="" style="whiteSpace=wrap;html=1;aspect=fixed;rounded=1;shadow=0;fillColor=#f5f5f5;fontColor=#333333;strokeColor=#666666;" parent="NboHHmUT9w5Wk8Y239MS-87" vertex="1">
          <mxGeometry width="40" height="40" as="geometry" />
        </mxCell>
        <mxCell id="NboHHmUT9w5Wk8Y239MS-89" value="" style="whiteSpace=wrap;html=1;aspect=fixed;rounded=1;shadow=0;fontSize=6;fontStyle=1" parent="NboHHmUT9w5Wk8Y239MS-87" vertex="1">
          <mxGeometry x="5" y="5" width="30" height="30" as="geometry" />
        </mxCell>
        <mxCell id="NboHHmUT9w5Wk8Y239MS-90" value="" style="group" parent="NboHHmUT9w5Wk8Y239MS-114" vertex="1" connectable="0">
          <mxGeometry x="400" y="80" width="80" height="40" as="geometry" />
        </mxCell>
        <mxCell id="NboHHmUT9w5Wk8Y239MS-91" value="" style="whiteSpace=wrap;html=1;aspect=fixed;rounded=1;shadow=0;fillColor=#f5f5f5;fontColor=#333333;strokeColor=#666666;" parent="NboHHmUT9w5Wk8Y239MS-90" vertex="1">
          <mxGeometry width="40" height="40" as="geometry" />
        </mxCell>
        <mxCell id="NboHHmUT9w5Wk8Y239MS-92" value="" style="whiteSpace=wrap;html=1;aspect=fixed;rounded=1;shadow=0;fontSize=6;fontStyle=1" parent="NboHHmUT9w5Wk8Y239MS-90" vertex="1">
          <mxGeometry x="5" y="5" width="30" height="30" as="geometry" />
        </mxCell>
        <mxCell id="NboHHmUT9w5Wk8Y239MS-93" value="" style="group" parent="NboHHmUT9w5Wk8Y239MS-90" vertex="1" connectable="0">
          <mxGeometry x="40" width="40" height="40" as="geometry" />
        </mxCell>
        <mxCell id="NboHHmUT9w5Wk8Y239MS-94" value="" style="whiteSpace=wrap;html=1;aspect=fixed;rounded=1;shadow=0;fillColor=#f5f5f5;fontColor=#333333;strokeColor=#666666;" parent="NboHHmUT9w5Wk8Y239MS-93" vertex="1">
          <mxGeometry width="40" height="40" as="geometry" />
        </mxCell>
        <mxCell id="NboHHmUT9w5Wk8Y239MS-95" value="" style="whiteSpace=wrap;html=1;aspect=fixed;rounded=1;shadow=0;fontSize=6;fontStyle=1" parent="NboHHmUT9w5Wk8Y239MS-93" vertex="1">
          <mxGeometry x="5" y="5" width="30" height="30" as="geometry" />
        </mxCell>
        <mxCell id="NboHHmUT9w5Wk8Y239MS-96" value="" style="group" parent="NboHHmUT9w5Wk8Y239MS-114" vertex="1" connectable="0">
          <mxGeometry x="480" y="80" width="40" height="40" as="geometry" />
        </mxCell>
        <mxCell id="NboHHmUT9w5Wk8Y239MS-97" value="" style="whiteSpace=wrap;html=1;aspect=fixed;rounded=1;shadow=0;fillColor=#f5f5f5;fontColor=#333333;strokeColor=#666666;" parent="NboHHmUT9w5Wk8Y239MS-96" vertex="1">
          <mxGeometry width="40" height="40" as="geometry" />
        </mxCell>
        <mxCell id="NboHHmUT9w5Wk8Y239MS-98" value="" style="whiteSpace=wrap;html=1;aspect=fixed;rounded=1;shadow=0;fontSize=6;fontStyle=1" parent="NboHHmUT9w5Wk8Y239MS-96" vertex="1">
          <mxGeometry x="5" y="5" width="30" height="30" as="geometry" />
        </mxCell>
        <mxCell id="NboHHmUT9w5Wk8Y239MS-99" value="" style="group" parent="NboHHmUT9w5Wk8Y239MS-114" vertex="1" connectable="0">
          <mxGeometry x="360" y="80" width="40" height="40" as="geometry" />
        </mxCell>
        <mxCell id="NboHHmUT9w5Wk8Y239MS-100" value="" style="whiteSpace=wrap;html=1;aspect=fixed;rounded=1;shadow=0;fillColor=#f5f5f5;fontColor=#333333;strokeColor=#666666;" parent="NboHHmUT9w5Wk8Y239MS-99" vertex="1">
          <mxGeometry width="40" height="40" as="geometry" />
        </mxCell>
        <mxCell id="NboHHmUT9w5Wk8Y239MS-101" value="" style="whiteSpace=wrap;html=1;aspect=fixed;rounded=1;shadow=0;fontSize=6;fontStyle=1" parent="NboHHmUT9w5Wk8Y239MS-99" vertex="1">
          <mxGeometry x="5" y="5" width="30" height="30" as="geometry" />
        </mxCell>
        <mxCell id="NboHHmUT9w5Wk8Y239MS-102" value="" style="group" parent="NboHHmUT9w5Wk8Y239MS-114" vertex="1" connectable="0">
          <mxGeometry x="320" y="80" width="40" height="40" as="geometry" />
        </mxCell>
        <mxCell id="NboHHmUT9w5Wk8Y239MS-103" value="" style="whiteSpace=wrap;html=1;aspect=fixed;rounded=1;shadow=0;fillColor=#f5f5f5;fontColor=#333333;strokeColor=#666666;" parent="NboHHmUT9w5Wk8Y239MS-102" vertex="1">
          <mxGeometry width="40" height="40" as="geometry" />
        </mxCell>
        <mxCell id="NboHHmUT9w5Wk8Y239MS-104" value="" style="whiteSpace=wrap;html=1;aspect=fixed;rounded=1;shadow=0;fontSize=6;fontStyle=1" parent="NboHHmUT9w5Wk8Y239MS-102" vertex="1">
          <mxGeometry x="5" y="5" width="30" height="30" as="geometry" />
        </mxCell>
        <mxCell id="NboHHmUT9w5Wk8Y239MS-105" value="" style="group" parent="NboHHmUT9w5Wk8Y239MS-114" vertex="1" connectable="0">
          <mxGeometry x="320" y="120" width="40" height="40" as="geometry" />
        </mxCell>
        <mxCell id="NboHHmUT9w5Wk8Y239MS-106" value="" style="whiteSpace=wrap;html=1;aspect=fixed;rounded=1;shadow=0;fillColor=#f8cecc;strokeColor=#b85450;" parent="NboHHmUT9w5Wk8Y239MS-105" vertex="1">
          <mxGeometry width="40" height="40" as="geometry" />
        </mxCell>
        <mxCell id="NboHHmUT9w5Wk8Y239MS-107" value="" style="whiteSpace=wrap;html=1;aspect=fixed;rounded=1;shadow=0;fontSize=6;fontStyle=1;fillColor=#f8cecc;strokeColor=#b85450;" parent="NboHHmUT9w5Wk8Y239MS-105" vertex="1">
          <mxGeometry x="5" y="5" width="30" height="30" as="geometry" />
        </mxCell>
        <mxCell id="NboHHmUT9w5Wk8Y239MS-111" value="" style="group" parent="NboHHmUT9w5Wk8Y239MS-114" vertex="1" connectable="0">
          <mxGeometry x="280" y="120" width="40" height="40" as="geometry" />
        </mxCell>
        <mxCell id="NboHHmUT9w5Wk8Y239MS-112" value="" style="whiteSpace=wrap;html=1;aspect=fixed;rounded=1;shadow=0;fillColor=#f5f5f5;fontColor=#333333;strokeColor=#666666;" parent="NboHHmUT9w5Wk8Y239MS-111" vertex="1">
          <mxGeometry width="40" height="40" as="geometry" />
        </mxCell>
        <mxCell id="NboHHmUT9w5Wk8Y239MS-113" value="trans" style="whiteSpace=wrap;html=1;aspect=fixed;rounded=1;shadow=0;fontSize=6;fontStyle=1" parent="NboHHmUT9w5Wk8Y239MS-111" vertex="1">
          <mxGeometry x="5" y="5" width="30" height="30" as="geometry" />
        </mxCell>
        <mxCell id="NboHHmUT9w5Wk8Y239MS-115" value="" style="group" parent="1" vertex="1" connectable="0">
          <mxGeometry x="200" y="600" width="520" height="160" as="geometry" />
        </mxCell>
        <mxCell id="NboHHmUT9w5Wk8Y239MS-116" value="" style="group" parent="NboHHmUT9w5Wk8Y239MS-115" vertex="1" connectable="0">
          <mxGeometry width="40" height="40" as="geometry" />
        </mxCell>
        <mxCell id="NboHHmUT9w5Wk8Y239MS-117" value="" style="whiteSpace=wrap;html=1;aspect=fixed;rounded=1;shadow=0;fillColor=#f5f5f5;fontColor=#333333;strokeColor=#666666;" parent="NboHHmUT9w5Wk8Y239MS-116" vertex="1">
          <mxGeometry width="40" height="40" as="geometry" />
        </mxCell>
        <mxCell id="NboHHmUT9w5Wk8Y239MS-118" value="~" style="whiteSpace=wrap;html=1;aspect=fixed;rounded=1;shadow=0;fontSize=6;fontStyle=1" parent="NboHHmUT9w5Wk8Y239MS-116" vertex="1">
          <mxGeometry x="5" y="5" width="30" height="30" as="geometry" />
        </mxCell>
        <mxCell id="NboHHmUT9w5Wk8Y239MS-119" value="" style="group" parent="NboHHmUT9w5Wk8Y239MS-115" vertex="1" connectable="0">
          <mxGeometry x="40" width="40" height="40" as="geometry" />
        </mxCell>
        <mxCell id="NboHHmUT9w5Wk8Y239MS-120" value="" style="whiteSpace=wrap;html=1;aspect=fixed;rounded=1;shadow=0;fillColor=#f5f5f5;fontColor=#333333;strokeColor=#666666;" parent="NboHHmUT9w5Wk8Y239MS-119" vertex="1">
          <mxGeometry width="40" height="40" as="geometry" />
        </mxCell>
        <mxCell id="NboHHmUT9w5Wk8Y239MS-121" value="!" style="whiteSpace=wrap;html=1;aspect=fixed;rounded=1;shadow=0;fontSize=6;fontStyle=1" parent="NboHHmUT9w5Wk8Y239MS-119" vertex="1">
          <mxGeometry x="5" y="5" width="30" height="30" as="geometry" />
        </mxCell>
        <mxCell id="NboHHmUT9w5Wk8Y239MS-122" value="" style="group" parent="NboHHmUT9w5Wk8Y239MS-115" vertex="1" connectable="0">
          <mxGeometry x="80" width="40" height="40" as="geometry" />
        </mxCell>
        <mxCell id="NboHHmUT9w5Wk8Y239MS-123" value="" style="whiteSpace=wrap;html=1;aspect=fixed;rounded=1;shadow=0;fillColor=#f5f5f5;fontColor=#333333;strokeColor=#666666;" parent="NboHHmUT9w5Wk8Y239MS-122" vertex="1">
          <mxGeometry width="40" height="40" as="geometry" />
        </mxCell>
        <mxCell id="NboHHmUT9w5Wk8Y239MS-124" value="@" style="whiteSpace=wrap;html=1;aspect=fixed;rounded=1;shadow=0;fontSize=6;fontStyle=1" parent="NboHHmUT9w5Wk8Y239MS-122" vertex="1">
          <mxGeometry x="5" y="5" width="30" height="30" as="geometry" />
        </mxCell>
        <mxCell id="NboHHmUT9w5Wk8Y239MS-125" value="" style="group" parent="NboHHmUT9w5Wk8Y239MS-115" vertex="1" connectable="0">
          <mxGeometry x="120" width="40" height="40" as="geometry" />
        </mxCell>
        <mxCell id="NboHHmUT9w5Wk8Y239MS-126" value="" style="whiteSpace=wrap;html=1;aspect=fixed;rounded=1;shadow=0;fillColor=#f5f5f5;fontColor=#333333;strokeColor=#666666;" parent="NboHHmUT9w5Wk8Y239MS-125" vertex="1">
          <mxGeometry width="40" height="40" as="geometry" />
        </mxCell>
        <mxCell id="NboHHmUT9w5Wk8Y239MS-127" value="#" style="whiteSpace=wrap;html=1;aspect=fixed;rounded=1;shadow=0;fontSize=6;fontStyle=1" parent="NboHHmUT9w5Wk8Y239MS-125" vertex="1">
          <mxGeometry x="5" y="5" width="30" height="30" as="geometry" />
        </mxCell>
        <mxCell id="NboHHmUT9w5Wk8Y239MS-128" value="" style="group" parent="NboHHmUT9w5Wk8Y239MS-115" vertex="1" connectable="0">
          <mxGeometry x="160" width="40" height="40" as="geometry" />
        </mxCell>
        <mxCell id="NboHHmUT9w5Wk8Y239MS-129" value="" style="whiteSpace=wrap;html=1;aspect=fixed;rounded=1;shadow=0;fillColor=#f5f5f5;fontColor=#333333;strokeColor=#666666;" parent="NboHHmUT9w5Wk8Y239MS-128" vertex="1">
          <mxGeometry width="40" height="40" as="geometry" />
        </mxCell>
        <mxCell id="NboHHmUT9w5Wk8Y239MS-130" value="$" style="whiteSpace=wrap;html=1;aspect=fixed;rounded=1;shadow=0;fontSize=6;fontStyle=1" parent="NboHHmUT9w5Wk8Y239MS-128" vertex="1">
          <mxGeometry x="5" y="5" width="30" height="30" as="geometry" />
        </mxCell>
        <mxCell id="NboHHmUT9w5Wk8Y239MS-131" value="" style="group" parent="NboHHmUT9w5Wk8Y239MS-115" vertex="1" connectable="0">
          <mxGeometry x="40" y="40" width="40" height="40" as="geometry" />
        </mxCell>
        <mxCell id="NboHHmUT9w5Wk8Y239MS-132" value="" style="whiteSpace=wrap;html=1;aspect=fixed;rounded=1;shadow=0;fillColor=#f5f5f5;fontColor=#333333;strokeColor=#666666;" parent="NboHHmUT9w5Wk8Y239MS-131" vertex="1">
          <mxGeometry width="40" height="40" as="geometry" />
        </mxCell>
        <mxCell id="NboHHmUT9w5Wk8Y239MS-133" value="^" style="whiteSpace=wrap;html=1;aspect=fixed;rounded=1;shadow=0;fontSize=6;fontStyle=1" parent="NboHHmUT9w5Wk8Y239MS-131" vertex="1">
          <mxGeometry x="5" y="5" width="30" height="30" as="geometry" />
        </mxCell>
        <mxCell id="NboHHmUT9w5Wk8Y239MS-134" value="" style="group" parent="NboHHmUT9w5Wk8Y239MS-115" vertex="1" connectable="0">
          <mxGeometry y="40" width="40" height="40" as="geometry" />
        </mxCell>
        <mxCell id="NboHHmUT9w5Wk8Y239MS-135" value="" style="whiteSpace=wrap;html=1;aspect=fixed;rounded=1;shadow=0;fillColor=#f5f5f5;fontColor=#333333;strokeColor=#666666;" parent="NboHHmUT9w5Wk8Y239MS-134" vertex="1">
          <mxGeometry width="40" height="40" as="geometry" />
        </mxCell>
        <mxCell id="NboHHmUT9w5Wk8Y239MS-136" value="%" style="whiteSpace=wrap;html=1;aspect=fixed;rounded=1;shadow=0;fontSize=6;fontStyle=1" parent="NboHHmUT9w5Wk8Y239MS-134" vertex="1">
          <mxGeometry x="5" y="5" width="30" height="30" as="geometry" />
        </mxCell>
        <mxCell id="NboHHmUT9w5Wk8Y239MS-137" value="" style="group" parent="NboHHmUT9w5Wk8Y239MS-115" vertex="1" connectable="0">
          <mxGeometry x="120" y="40" width="40" height="40" as="geometry" />
        </mxCell>
        <mxCell id="NboHHmUT9w5Wk8Y239MS-138" value="" style="whiteSpace=wrap;html=1;aspect=fixed;rounded=1;shadow=0;fillColor=#f5f5f5;fontColor=#333333;strokeColor=#666666;" parent="NboHHmUT9w5Wk8Y239MS-137" vertex="1">
          <mxGeometry width="40" height="40" as="geometry" />
        </mxCell>
        <mxCell id="NboHHmUT9w5Wk8Y239MS-139" value="*" style="whiteSpace=wrap;html=1;aspect=fixed;rounded=1;shadow=0;fontSize=6;fontStyle=1" parent="NboHHmUT9w5Wk8Y239MS-137" vertex="1">
          <mxGeometry x="5" y="5" width="30" height="30" as="geometry" />
        </mxCell>
        <mxCell id="NboHHmUT9w5Wk8Y239MS-140" value="" style="group" parent="NboHHmUT9w5Wk8Y239MS-115" vertex="1" connectable="0">
          <mxGeometry x="160" y="40" width="40" height="40" as="geometry" />
        </mxCell>
        <mxCell id="NboHHmUT9w5Wk8Y239MS-141" value="" style="whiteSpace=wrap;html=1;aspect=fixed;rounded=1;shadow=0;fillColor=#f5f5f5;fontColor=#333333;strokeColor=#666666;" parent="NboHHmUT9w5Wk8Y239MS-140" vertex="1">
          <mxGeometry width="40" height="40" as="geometry" />
        </mxCell>
        <mxCell id="NboHHmUT9w5Wk8Y239MS-142" value="" style="whiteSpace=wrap;html=1;aspect=fixed;rounded=1;shadow=0;fontSize=6;fontStyle=1" parent="NboHHmUT9w5Wk8Y239MS-140" vertex="1">
          <mxGeometry x="5" y="5" width="30" height="30" as="geometry" />
        </mxCell>
        <mxCell id="NboHHmUT9w5Wk8Y239MS-143" value="" style="group" parent="NboHHmUT9w5Wk8Y239MS-115" vertex="1" connectable="0">
          <mxGeometry x="80" y="40" width="40" height="40" as="geometry" />
        </mxCell>
        <mxCell id="NboHHmUT9w5Wk8Y239MS-144" value="" style="whiteSpace=wrap;html=1;aspect=fixed;rounded=1;shadow=0;fillColor=#f5f5f5;fontColor=#333333;strokeColor=#666666;" parent="NboHHmUT9w5Wk8Y239MS-143" vertex="1">
          <mxGeometry width="40" height="40" as="geometry" />
        </mxCell>
        <mxCell id="NboHHmUT9w5Wk8Y239MS-145" value="&amp;amp;" style="whiteSpace=wrap;html=1;aspect=fixed;rounded=1;shadow=0;fontSize=6;fontStyle=1" parent="NboHHmUT9w5Wk8Y239MS-143" vertex="1">
          <mxGeometry x="5" y="5" width="30" height="30" as="geometry" />
        </mxCell>
        <mxCell id="NboHHmUT9w5Wk8Y239MS-146" value="" style="group" parent="NboHHmUT9w5Wk8Y239MS-115" vertex="1" connectable="0">
          <mxGeometry x="80" y="80" width="80" height="40" as="geometry" />
        </mxCell>
        <mxCell id="NboHHmUT9w5Wk8Y239MS-147" value="" style="whiteSpace=wrap;html=1;aspect=fixed;rounded=1;shadow=0;fillColor=#f5f5f5;fontColor=#333333;strokeColor=#666666;" parent="NboHHmUT9w5Wk8Y239MS-146" vertex="1">
          <mxGeometry width="40" height="40" as="geometry" />
        </mxCell>
        <mxCell id="NboHHmUT9w5Wk8Y239MS-148" value="" style="whiteSpace=wrap;html=1;aspect=fixed;rounded=1;shadow=0;fontSize=6;fontStyle=1" parent="NboHHmUT9w5Wk8Y239MS-146" vertex="1">
          <mxGeometry x="5" y="5" width="30" height="30" as="geometry" />
        </mxCell>
        <mxCell id="NboHHmUT9w5Wk8Y239MS-149" value="" style="group" parent="NboHHmUT9w5Wk8Y239MS-146" vertex="1" connectable="0">
          <mxGeometry x="40" width="40" height="40" as="geometry" />
        </mxCell>
        <mxCell id="NboHHmUT9w5Wk8Y239MS-150" value="" style="whiteSpace=wrap;html=1;aspect=fixed;rounded=1;shadow=0;fillColor=#f5f5f5;fontColor=#333333;strokeColor=#666666;" parent="NboHHmUT9w5Wk8Y239MS-149" vertex="1">
          <mxGeometry width="40" height="40" as="geometry" />
        </mxCell>
        <mxCell id="NboHHmUT9w5Wk8Y239MS-151" value="" style="whiteSpace=wrap;html=1;aspect=fixed;rounded=1;shadow=0;fontSize=6;fontStyle=1" parent="NboHHmUT9w5Wk8Y239MS-149" vertex="1">
          <mxGeometry x="5" y="5" width="30" height="30" as="geometry" />
        </mxCell>
        <mxCell id="NboHHmUT9w5Wk8Y239MS-152" value="" style="group" parent="NboHHmUT9w5Wk8Y239MS-115" vertex="1" connectable="0">
          <mxGeometry x="160" y="80" width="40" height="40" as="geometry" />
        </mxCell>
        <mxCell id="NboHHmUT9w5Wk8Y239MS-153" value="" style="whiteSpace=wrap;html=1;aspect=fixed;rounded=1;shadow=0;fillColor=#f5f5f5;fontColor=#333333;strokeColor=#666666;" parent="NboHHmUT9w5Wk8Y239MS-152" vertex="1">
          <mxGeometry width="40" height="40" as="geometry" />
        </mxCell>
        <mxCell id="NboHHmUT9w5Wk8Y239MS-154" value="" style="whiteSpace=wrap;html=1;aspect=fixed;rounded=1;shadow=0;fontSize=6;fontStyle=1" parent="NboHHmUT9w5Wk8Y239MS-152" vertex="1">
          <mxGeometry x="5" y="5" width="30" height="30" as="geometry" />
        </mxCell>
        <mxCell id="NboHHmUT9w5Wk8Y239MS-155" value="" style="group" parent="NboHHmUT9w5Wk8Y239MS-115" vertex="1" connectable="0">
          <mxGeometry x="40" y="80" width="40" height="40" as="geometry" />
        </mxCell>
        <mxCell id="NboHHmUT9w5Wk8Y239MS-156" value="" style="whiteSpace=wrap;html=1;aspect=fixed;rounded=1;shadow=0;fillColor=#f5f5f5;fontColor=#333333;strokeColor=#666666;" parent="NboHHmUT9w5Wk8Y239MS-155" vertex="1">
          <mxGeometry width="40" height="40" as="geometry" />
        </mxCell>
        <mxCell id="NboHHmUT9w5Wk8Y239MS-157" value="" style="whiteSpace=wrap;html=1;aspect=fixed;rounded=1;shadow=0;fontSize=6;fontStyle=1" parent="NboHHmUT9w5Wk8Y239MS-155" vertex="1">
          <mxGeometry x="5" y="5" width="30" height="30" as="geometry" />
        </mxCell>
        <mxCell id="NboHHmUT9w5Wk8Y239MS-158" value="" style="group" parent="NboHHmUT9w5Wk8Y239MS-115" vertex="1" connectable="0">
          <mxGeometry y="80" width="40" height="40" as="geometry" />
        </mxCell>
        <mxCell id="NboHHmUT9w5Wk8Y239MS-159" value="" style="whiteSpace=wrap;html=1;aspect=fixed;rounded=1;shadow=0;fillColor=#f5f5f5;fontColor=#333333;strokeColor=#666666;" parent="NboHHmUT9w5Wk8Y239MS-158" vertex="1">
          <mxGeometry width="40" height="40" as="geometry" />
        </mxCell>
        <mxCell id="NboHHmUT9w5Wk8Y239MS-160" value="" style="whiteSpace=wrap;html=1;aspect=fixed;rounded=1;shadow=0;fontSize=6;fontStyle=1" parent="NboHHmUT9w5Wk8Y239MS-158" vertex="1">
          <mxGeometry x="5" y="5" width="30" height="30" as="geometry" />
        </mxCell>
        <mxCell id="NboHHmUT9w5Wk8Y239MS-161" value="" style="group" parent="NboHHmUT9w5Wk8Y239MS-115" vertex="1" connectable="0">
          <mxGeometry x="120" y="120" width="40" height="40" as="geometry" />
        </mxCell>
        <mxCell id="NboHHmUT9w5Wk8Y239MS-162" value="" style="whiteSpace=wrap;html=1;aspect=fixed;rounded=1;shadow=0;fillColor=#f5f5f5;fontColor=#333333;strokeColor=#666666;" parent="NboHHmUT9w5Wk8Y239MS-161" vertex="1">
          <mxGeometry width="40" height="40" as="geometry" />
        </mxCell>
        <mxCell id="NboHHmUT9w5Wk8Y239MS-163" value="" style="whiteSpace=wrap;html=1;aspect=fixed;rounded=1;shadow=0;fontSize=6;fontStyle=1" parent="NboHHmUT9w5Wk8Y239MS-161" vertex="1">
          <mxGeometry x="5" y="5" width="30" height="30" as="geometry" />
        </mxCell>
        <mxCell id="NboHHmUT9w5Wk8Y239MS-164" value="" style="group" parent="NboHHmUT9w5Wk8Y239MS-115" vertex="1" connectable="0">
          <mxGeometry x="160" y="120" width="40" height="40" as="geometry" />
        </mxCell>
        <mxCell id="NboHHmUT9w5Wk8Y239MS-165" value="" style="whiteSpace=wrap;html=1;aspect=fixed;rounded=1;shadow=0;fillColor=#e1d5e7;strokeColor=#9673a6;" parent="NboHHmUT9w5Wk8Y239MS-164" vertex="1">
          <mxGeometry width="40" height="40" as="geometry" />
        </mxCell>
        <mxCell id="NboHHmUT9w5Wk8Y239MS-166" value="" style="whiteSpace=wrap;html=1;aspect=fixed;rounded=1;shadow=0;fontSize=6;fontStyle=1;fillColor=#e1d5e7;strokeColor=#9673a6;" parent="NboHHmUT9w5Wk8Y239MS-164" vertex="1">
          <mxGeometry x="5" y="5" width="30" height="30" as="geometry" />
        </mxCell>
        <mxCell id="NboHHmUT9w5Wk8Y239MS-167" value="" style="group" parent="NboHHmUT9w5Wk8Y239MS-115" vertex="1" connectable="0">
          <mxGeometry x="200" y="120" width="40" height="40" as="geometry" />
        </mxCell>
        <mxCell id="NboHHmUT9w5Wk8Y239MS-168" value="" style="whiteSpace=wrap;html=1;aspect=fixed;rounded=1;shadow=0;fillColor=#f5f5f5;fontColor=#333333;strokeColor=#666666;" parent="NboHHmUT9w5Wk8Y239MS-167" vertex="1">
          <mxGeometry width="40" height="40" as="geometry" />
        </mxCell>
        <mxCell id="NboHHmUT9w5Wk8Y239MS-169" value="" style="whiteSpace=wrap;html=1;aspect=fixed;rounded=1;shadow=0;fontSize=6;fontStyle=1" parent="NboHHmUT9w5Wk8Y239MS-167" vertex="1">
          <mxGeometry x="5" y="5" width="30" height="30" as="geometry" />
        </mxCell>
        <mxCell id="NboHHmUT9w5Wk8Y239MS-170" value="" style="group" parent="NboHHmUT9w5Wk8Y239MS-115" vertex="1" connectable="0">
          <mxGeometry x="320" width="40" height="40" as="geometry" />
        </mxCell>
        <mxCell id="NboHHmUT9w5Wk8Y239MS-171" value="" style="whiteSpace=wrap;html=1;aspect=fixed;rounded=1;shadow=0;fillColor=#f5f5f5;fontColor=#333333;strokeColor=#666666;" parent="NboHHmUT9w5Wk8Y239MS-170" vertex="1">
          <mxGeometry width="40" height="40" as="geometry" />
        </mxCell>
        <mxCell id="NboHHmUT9w5Wk8Y239MS-172" value="{" style="whiteSpace=wrap;html=1;aspect=fixed;rounded=1;shadow=0;fontSize=6;fontStyle=1" parent="NboHHmUT9w5Wk8Y239MS-170" vertex="1">
          <mxGeometry x="5" y="5" width="30" height="30" as="geometry" />
        </mxCell>
        <mxCell id="NboHHmUT9w5Wk8Y239MS-173" value="" style="group" parent="NboHHmUT9w5Wk8Y239MS-115" vertex="1" connectable="0">
          <mxGeometry x="360" width="40" height="40" as="geometry" />
        </mxCell>
        <mxCell id="NboHHmUT9w5Wk8Y239MS-174" value="" style="whiteSpace=wrap;html=1;aspect=fixed;rounded=1;shadow=0;fillColor=#f5f5f5;fontColor=#333333;strokeColor=#666666;" parent="NboHHmUT9w5Wk8Y239MS-173" vertex="1">
          <mxGeometry width="40" height="40" as="geometry" />
        </mxCell>
        <mxCell id="NboHHmUT9w5Wk8Y239MS-175" value="}" style="whiteSpace=wrap;html=1;aspect=fixed;rounded=1;shadow=0;fontSize=6;fontStyle=1" parent="NboHHmUT9w5Wk8Y239MS-173" vertex="1">
          <mxGeometry x="5" y="5" width="30" height="30" as="geometry" />
        </mxCell>
        <mxCell id="NboHHmUT9w5Wk8Y239MS-176" value="" style="group" parent="NboHHmUT9w5Wk8Y239MS-115" vertex="1" connectable="0">
          <mxGeometry x="400" width="40" height="40" as="geometry" />
        </mxCell>
        <mxCell id="NboHHmUT9w5Wk8Y239MS-177" value="" style="whiteSpace=wrap;html=1;aspect=fixed;rounded=1;shadow=0;fillColor=#f5f5f5;fontColor=#333333;strokeColor=#666666;" parent="NboHHmUT9w5Wk8Y239MS-176" vertex="1">
          <mxGeometry width="40" height="40" as="geometry" />
        </mxCell>
        <mxCell id="NboHHmUT9w5Wk8Y239MS-178" value="&quot;&lt;div&gt;&#39;&lt;/div&gt;" style="whiteSpace=wrap;html=1;aspect=fixed;rounded=1;shadow=0;fontSize=6;fontStyle=1" parent="NboHHmUT9w5Wk8Y239MS-176" vertex="1">
          <mxGeometry x="5" y="5" width="30" height="30" as="geometry" />
        </mxCell>
        <mxCell id="NboHHmUT9w5Wk8Y239MS-179" value="" style="group" parent="NboHHmUT9w5Wk8Y239MS-115" vertex="1" connectable="0">
          <mxGeometry x="440" width="40" height="40" as="geometry" />
        </mxCell>
        <mxCell id="NboHHmUT9w5Wk8Y239MS-180" value="" style="whiteSpace=wrap;html=1;aspect=fixed;rounded=1;shadow=0;fillColor=#f5f5f5;fontColor=#333333;strokeColor=#666666;" parent="NboHHmUT9w5Wk8Y239MS-179" vertex="1">
          <mxGeometry width="40" height="40" as="geometry" />
        </mxCell>
        <mxCell id="NboHHmUT9w5Wk8Y239MS-181" value="" style="whiteSpace=wrap;html=1;aspect=fixed;rounded=1;shadow=0;fontSize=6;fontStyle=1" parent="NboHHmUT9w5Wk8Y239MS-179" vertex="1">
          <mxGeometry x="5" y="5" width="30" height="30" as="geometry" />
        </mxCell>
        <mxCell id="NboHHmUT9w5Wk8Y239MS-182" value="" style="group" parent="NboHHmUT9w5Wk8Y239MS-115" vertex="1" connectable="0">
          <mxGeometry x="480" width="40" height="40" as="geometry" />
        </mxCell>
        <mxCell id="NboHHmUT9w5Wk8Y239MS-183" value="" style="whiteSpace=wrap;html=1;aspect=fixed;rounded=1;shadow=0;fillColor=#f5f5f5;fontColor=#333333;strokeColor=#666666;" parent="NboHHmUT9w5Wk8Y239MS-182" vertex="1">
          <mxGeometry width="40" height="40" as="geometry" />
        </mxCell>
        <mxCell id="NboHHmUT9w5Wk8Y239MS-184" value="" style="whiteSpace=wrap;html=1;aspect=fixed;rounded=1;shadow=0;fontSize=6;fontStyle=1" parent="NboHHmUT9w5Wk8Y239MS-182" vertex="1">
          <mxGeometry x="5" y="5" width="30" height="30" as="geometry" />
        </mxCell>
        <mxCell id="NboHHmUT9w5Wk8Y239MS-185" value="" style="group" parent="NboHHmUT9w5Wk8Y239MS-115" vertex="1" connectable="0">
          <mxGeometry x="360" y="40" width="40" height="40" as="geometry" />
        </mxCell>
        <mxCell id="NboHHmUT9w5Wk8Y239MS-186" value="" style="whiteSpace=wrap;html=1;aspect=fixed;rounded=1;shadow=0;fillColor=#f5f5f5;fontColor=#333333;strokeColor=#666666;" parent="NboHHmUT9w5Wk8Y239MS-185" vertex="1">
          <mxGeometry width="40" height="40" as="geometry" />
        </mxCell>
        <mxCell id="NboHHmUT9w5Wk8Y239MS-187" value="]" style="whiteSpace=wrap;html=1;aspect=fixed;rounded=1;shadow=0;fontSize=6;fontStyle=1" parent="NboHHmUT9w5Wk8Y239MS-185" vertex="1">
          <mxGeometry x="5" y="5" width="30" height="30" as="geometry" />
        </mxCell>
        <mxCell id="NboHHmUT9w5Wk8Y239MS-188" value="" style="group" parent="NboHHmUT9w5Wk8Y239MS-115" vertex="1" connectable="0">
          <mxGeometry x="320" y="40" width="40" height="40" as="geometry" />
        </mxCell>
        <mxCell id="NboHHmUT9w5Wk8Y239MS-189" value="" style="whiteSpace=wrap;html=1;aspect=fixed;rounded=1;shadow=0;fillColor=#f5f5f5;fontColor=#333333;strokeColor=#666666;" parent="NboHHmUT9w5Wk8Y239MS-188" vertex="1">
          <mxGeometry width="40" height="40" as="geometry" />
        </mxCell>
        <mxCell id="NboHHmUT9w5Wk8Y239MS-190" value="[" style="whiteSpace=wrap;html=1;aspect=fixed;rounded=1;shadow=0;fontSize=6;fontStyle=1" parent="NboHHmUT9w5Wk8Y239MS-188" vertex="1">
          <mxGeometry x="5" y="5" width="30" height="30" as="geometry" />
        </mxCell>
        <mxCell id="NboHHmUT9w5Wk8Y239MS-191" value="" style="group" parent="NboHHmUT9w5Wk8Y239MS-115" vertex="1" connectable="0">
          <mxGeometry x="440" y="40" width="40" height="40" as="geometry" />
        </mxCell>
        <mxCell id="NboHHmUT9w5Wk8Y239MS-192" value="" style="whiteSpace=wrap;html=1;aspect=fixed;rounded=1;shadow=0;fillColor=#f5f5f5;fontColor=#333333;strokeColor=#666666;" parent="NboHHmUT9w5Wk8Y239MS-191" vertex="1">
          <mxGeometry width="40" height="40" as="geometry" />
        </mxCell>
        <mxCell id="NboHHmUT9w5Wk8Y239MS-193" value="" style="whiteSpace=wrap;html=1;aspect=fixed;rounded=1;shadow=0;fontSize=6;fontStyle=1" parent="NboHHmUT9w5Wk8Y239MS-191" vertex="1">
          <mxGeometry x="5" y="5" width="30" height="30" as="geometry" />
        </mxCell>
        <mxCell id="NboHHmUT9w5Wk8Y239MS-194" value="" style="group" parent="NboHHmUT9w5Wk8Y239MS-115" vertex="1" connectable="0">
          <mxGeometry x="480" y="40" width="40" height="40" as="geometry" />
        </mxCell>
        <mxCell id="NboHHmUT9w5Wk8Y239MS-195" value="" style="whiteSpace=wrap;html=1;aspect=fixed;rounded=1;shadow=0;fillColor=#f5f5f5;fontColor=#333333;strokeColor=#666666;" parent="NboHHmUT9w5Wk8Y239MS-194" vertex="1">
          <mxGeometry width="40" height="40" as="geometry" />
        </mxCell>
        <mxCell id="NboHHmUT9w5Wk8Y239MS-196" value="" style="whiteSpace=wrap;html=1;aspect=fixed;rounded=1;shadow=0;fontSize=6;fontStyle=1" parent="NboHHmUT9w5Wk8Y239MS-194" vertex="1">
          <mxGeometry x="5" y="5" width="30" height="30" as="geometry" />
        </mxCell>
        <mxCell id="NboHHmUT9w5Wk8Y239MS-197" value="" style="group" parent="NboHHmUT9w5Wk8Y239MS-115" vertex="1" connectable="0">
          <mxGeometry x="400" y="40" width="40" height="40" as="geometry" />
        </mxCell>
        <mxCell id="NboHHmUT9w5Wk8Y239MS-198" value="" style="whiteSpace=wrap;html=1;aspect=fixed;rounded=1;shadow=0;fillColor=#f5f5f5;fontColor=#333333;strokeColor=#666666;" parent="NboHHmUT9w5Wk8Y239MS-197" vertex="1">
          <mxGeometry width="40" height="40" as="geometry" />
        </mxCell>
        <mxCell id="NboHHmUT9w5Wk8Y239MS-199" value="" style="whiteSpace=wrap;html=1;aspect=fixed;rounded=1;shadow=0;fontSize=6;fontStyle=1" parent="NboHHmUT9w5Wk8Y239MS-197" vertex="1">
          <mxGeometry x="5" y="5" width="30" height="30" as="geometry" />
        </mxCell>
        <mxCell id="NboHHmUT9w5Wk8Y239MS-200" value="" style="group" parent="NboHHmUT9w5Wk8Y239MS-115" vertex="1" connectable="0">
          <mxGeometry x="400" y="80" width="80" height="40" as="geometry" />
        </mxCell>
        <mxCell id="NboHHmUT9w5Wk8Y239MS-201" value="" style="whiteSpace=wrap;html=1;aspect=fixed;rounded=1;shadow=0;fillColor=#f5f5f5;fontColor=#333333;strokeColor=#666666;" parent="NboHHmUT9w5Wk8Y239MS-200" vertex="1">
          <mxGeometry width="40" height="40" as="geometry" />
        </mxCell>
        <mxCell id="NboHHmUT9w5Wk8Y239MS-202" value="" style="whiteSpace=wrap;html=1;aspect=fixed;rounded=1;shadow=0;fontSize=6;fontStyle=1" parent="NboHHmUT9w5Wk8Y239MS-200" vertex="1">
          <mxGeometry x="5" y="5" width="30" height="30" as="geometry" />
        </mxCell>
        <mxCell id="NboHHmUT9w5Wk8Y239MS-203" value="" style="group" parent="NboHHmUT9w5Wk8Y239MS-200" vertex="1" connectable="0">
          <mxGeometry x="40" width="40" height="40" as="geometry" />
        </mxCell>
        <mxCell id="NboHHmUT9w5Wk8Y239MS-204" value="" style="whiteSpace=wrap;html=1;aspect=fixed;rounded=1;shadow=0;fillColor=#f5f5f5;fontColor=#333333;strokeColor=#666666;" parent="NboHHmUT9w5Wk8Y239MS-203" vertex="1">
          <mxGeometry width="40" height="40" as="geometry" />
        </mxCell>
        <mxCell id="NboHHmUT9w5Wk8Y239MS-205" value="" style="whiteSpace=wrap;html=1;aspect=fixed;rounded=1;shadow=0;fontSize=6;fontStyle=1" parent="NboHHmUT9w5Wk8Y239MS-203" vertex="1">
          <mxGeometry x="5" y="5" width="30" height="30" as="geometry" />
        </mxCell>
        <mxCell id="NboHHmUT9w5Wk8Y239MS-206" value="" style="group" parent="NboHHmUT9w5Wk8Y239MS-115" vertex="1" connectable="0">
          <mxGeometry x="480" y="80" width="40" height="40" as="geometry" />
        </mxCell>
        <mxCell id="NboHHmUT9w5Wk8Y239MS-207" value="" style="whiteSpace=wrap;html=1;aspect=fixed;rounded=1;shadow=0;fillColor=#f5f5f5;fontColor=#333333;strokeColor=#666666;" parent="NboHHmUT9w5Wk8Y239MS-206" vertex="1">
          <mxGeometry width="40" height="40" as="geometry" />
        </mxCell>
        <mxCell id="NboHHmUT9w5Wk8Y239MS-208" value="" style="whiteSpace=wrap;html=1;aspect=fixed;rounded=1;shadow=0;fontSize=6;fontStyle=1" parent="NboHHmUT9w5Wk8Y239MS-206" vertex="1">
          <mxGeometry x="5" y="5" width="30" height="30" as="geometry" />
        </mxCell>
        <mxCell id="NboHHmUT9w5Wk8Y239MS-209" value="" style="group" parent="NboHHmUT9w5Wk8Y239MS-115" vertex="1" connectable="0">
          <mxGeometry x="360" y="80" width="40" height="40" as="geometry" />
        </mxCell>
        <mxCell id="NboHHmUT9w5Wk8Y239MS-210" value="" style="whiteSpace=wrap;html=1;aspect=fixed;rounded=1;shadow=0;fillColor=#f5f5f5;fontColor=#333333;strokeColor=#666666;" parent="NboHHmUT9w5Wk8Y239MS-209" vertex="1">
          <mxGeometry width="40" height="40" as="geometry" />
        </mxCell>
        <mxCell id="NboHHmUT9w5Wk8Y239MS-211" value=")" style="whiteSpace=wrap;html=1;aspect=fixed;rounded=1;shadow=0;fontSize=6;fontStyle=1" parent="NboHHmUT9w5Wk8Y239MS-209" vertex="1">
          <mxGeometry x="5" y="5" width="30" height="30" as="geometry" />
        </mxCell>
        <mxCell id="NboHHmUT9w5Wk8Y239MS-212" value="" style="group" parent="NboHHmUT9w5Wk8Y239MS-115" vertex="1" connectable="0">
          <mxGeometry x="320" y="80" width="40" height="40" as="geometry" />
        </mxCell>
        <mxCell id="NboHHmUT9w5Wk8Y239MS-213" value="" style="whiteSpace=wrap;html=1;aspect=fixed;rounded=1;shadow=0;fillColor=#f5f5f5;fontColor=#333333;strokeColor=#666666;" parent="NboHHmUT9w5Wk8Y239MS-212" vertex="1">
          <mxGeometry width="40" height="40" as="geometry" />
        </mxCell>
        <mxCell id="NboHHmUT9w5Wk8Y239MS-214" value="(" style="whiteSpace=wrap;html=1;aspect=fixed;rounded=1;shadow=0;fontSize=6;fontStyle=1" parent="NboHHmUT9w5Wk8Y239MS-212" vertex="1">
          <mxGeometry x="5" y="5" width="30" height="30" as="geometry" />
        </mxCell>
        <mxCell id="NboHHmUT9w5Wk8Y239MS-215" value="" style="group" parent="NboHHmUT9w5Wk8Y239MS-115" vertex="1" connectable="0">
          <mxGeometry x="320" y="120" width="40" height="40" as="geometry" />
        </mxCell>
        <mxCell id="NboHHmUT9w5Wk8Y239MS-216" value="" style="whiteSpace=wrap;html=1;aspect=fixed;rounded=1;shadow=0;fillColor=#f5f5f5;fontColor=#333333;strokeColor=#666666;" parent="NboHHmUT9w5Wk8Y239MS-215" vertex="1">
          <mxGeometry width="40" height="40" as="geometry" />
        </mxCell>
        <mxCell id="NboHHmUT9w5Wk8Y239MS-217" value="Enter" style="whiteSpace=wrap;html=1;aspect=fixed;rounded=1;shadow=0;fontSize=6;fontStyle=1" parent="NboHHmUT9w5Wk8Y239MS-215" vertex="1">
          <mxGeometry x="5" y="5" width="30" height="30" as="geometry" />
        </mxCell>
        <mxCell id="NboHHmUT9w5Wk8Y239MS-218" value="" style="group" parent="NboHHmUT9w5Wk8Y239MS-115" vertex="1" connectable="0">
          <mxGeometry x="280" y="120" width="40" height="40" as="geometry" />
        </mxCell>
        <mxCell id="NboHHmUT9w5Wk8Y239MS-219" value="" style="whiteSpace=wrap;html=1;aspect=fixed;rounded=1;shadow=0;fillColor=#f5f5f5;fontColor=#333333;strokeColor=#666666;" parent="NboHHmUT9w5Wk8Y239MS-218" vertex="1">
          <mxGeometry width="40" height="40" as="geometry" />
        </mxCell>
        <mxCell id="NboHHmUT9w5Wk8Y239MS-220" value="" style="whiteSpace=wrap;html=1;aspect=fixed;rounded=1;shadow=0;fontSize=6;fontStyle=1" parent="NboHHmUT9w5Wk8Y239MS-218" vertex="1">
          <mxGeometry x="5" y="5" width="30" height="30" as="geometry" />
        </mxCell>
        <mxCell id="NboHHmUT9w5Wk8Y239MS-222" value="" style="group" parent="1" vertex="1" connectable="0">
          <mxGeometry x="200" y="198" width="520" height="160" as="geometry" />
        </mxCell>
        <mxCell id="NboHHmUT9w5Wk8Y239MS-223" value="" style="group" parent="NboHHmUT9w5Wk8Y239MS-222" vertex="1" connectable="0">
          <mxGeometry width="40" height="40" as="geometry" />
        </mxCell>
        <mxCell id="NboHHmUT9w5Wk8Y239MS-224" value="" style="whiteSpace=wrap;html=1;aspect=fixed;rounded=1;shadow=0;fillColor=#f5f5f5;fontColor=#333333;strokeColor=#666666;" parent="NboHHmUT9w5Wk8Y239MS-223" vertex="1">
          <mxGeometry width="40" height="40" as="geometry" />
        </mxCell>
        <mxCell id="NboHHmUT9w5Wk8Y239MS-225" value="Q" style="whiteSpace=wrap;html=1;aspect=fixed;rounded=1;shadow=0;fontSize=6;fontStyle=1" parent="NboHHmUT9w5Wk8Y239MS-223" vertex="1">
          <mxGeometry x="5" y="5" width="30" height="30" as="geometry" />
        </mxCell>
        <mxCell id="NboHHmUT9w5Wk8Y239MS-226" value="" style="group" parent="NboHHmUT9w5Wk8Y239MS-222" vertex="1" connectable="0">
          <mxGeometry x="40" width="40" height="40" as="geometry" />
        </mxCell>
        <mxCell id="NboHHmUT9w5Wk8Y239MS-227" value="" style="whiteSpace=wrap;html=1;aspect=fixed;rounded=1;shadow=0;fillColor=#f5f5f5;fontColor=#333333;strokeColor=#666666;" parent="NboHHmUT9w5Wk8Y239MS-226" vertex="1">
          <mxGeometry width="40" height="40" as="geometry" />
        </mxCell>
        <mxCell id="NboHHmUT9w5Wk8Y239MS-228" value="W" style="whiteSpace=wrap;html=1;aspect=fixed;rounded=1;shadow=0;fontSize=6;fontStyle=1" parent="NboHHmUT9w5Wk8Y239MS-226" vertex="1">
          <mxGeometry x="5" y="5" width="30" height="30" as="geometry" />
        </mxCell>
        <mxCell id="9LiMOaUNixQt_38JYWJo-24" value="" style="endArrow=none;html=1;rounded=0;exitX=0.5;exitY=0;exitDx=0;exitDy=0;" edge="1" parent="NboHHmUT9w5Wk8Y239MS-226" source="NboHHmUT9w5Wk8Y239MS-228">
          <mxGeometry width="50" height="50" relative="1" as="geometry">
            <mxPoint x="19.899999999999977" y="-1" as="sourcePoint" />
            <mxPoint x="19.899999999999977" y="-11" as="targetPoint" />
          </mxGeometry>
        </mxCell>
        <mxCell id="NboHHmUT9w5Wk8Y239MS-229" value="" style="group" parent="NboHHmUT9w5Wk8Y239MS-222" vertex="1" connectable="0">
          <mxGeometry x="80" width="40" height="40" as="geometry" />
        </mxCell>
        <mxCell id="NboHHmUT9w5Wk8Y239MS-230" value="" style="whiteSpace=wrap;html=1;aspect=fixed;rounded=1;shadow=0;fillColor=#f5f5f5;fontColor=#333333;strokeColor=#666666;" parent="NboHHmUT9w5Wk8Y239MS-229" vertex="1">
          <mxGeometry width="40" height="40" as="geometry" />
        </mxCell>
        <mxCell id="NboHHmUT9w5Wk8Y239MS-231" value="E" style="whiteSpace=wrap;html=1;aspect=fixed;rounded=1;shadow=0;fontSize=6;fontStyle=1" parent="NboHHmUT9w5Wk8Y239MS-229" vertex="1">
          <mxGeometry x="5" y="5" width="30" height="30" as="geometry" />
        </mxCell>
        <mxCell id="NboHHmUT9w5Wk8Y239MS-232" value="" style="group" parent="NboHHmUT9w5Wk8Y239MS-222" vertex="1" connectable="0">
          <mxGeometry x="120" width="40" height="40" as="geometry" />
        </mxCell>
        <mxCell id="NboHHmUT9w5Wk8Y239MS-233" value="" style="whiteSpace=wrap;html=1;aspect=fixed;rounded=1;shadow=0;fillColor=#f5f5f5;fontColor=#333333;strokeColor=#666666;" parent="NboHHmUT9w5Wk8Y239MS-232" vertex="1">
          <mxGeometry width="40" height="40" as="geometry" />
        </mxCell>
        <mxCell id="NboHHmUT9w5Wk8Y239MS-234" value="R" style="whiteSpace=wrap;html=1;aspect=fixed;rounded=1;shadow=0;fontSize=6;fontStyle=1" parent="NboHHmUT9w5Wk8Y239MS-232" vertex="1">
          <mxGeometry x="5" y="5" width="30" height="30" as="geometry" />
        </mxCell>
        <mxCell id="NboHHmUT9w5Wk8Y239MS-235" value="" style="group" parent="NboHHmUT9w5Wk8Y239MS-222" vertex="1" connectable="0">
          <mxGeometry x="160" width="40" height="40" as="geometry" />
        </mxCell>
        <mxCell id="NboHHmUT9w5Wk8Y239MS-236" value="" style="whiteSpace=wrap;html=1;aspect=fixed;rounded=1;shadow=0;fillColor=#f5f5f5;fontColor=#333333;strokeColor=#666666;" parent="NboHHmUT9w5Wk8Y239MS-235" vertex="1">
          <mxGeometry width="40" height="40" as="geometry" />
        </mxCell>
        <mxCell id="NboHHmUT9w5Wk8Y239MS-237" value="T" style="whiteSpace=wrap;html=1;aspect=fixed;rounded=1;shadow=0;fontSize=6;fontStyle=1" parent="NboHHmUT9w5Wk8Y239MS-235" vertex="1">
          <mxGeometry x="5" y="5" width="30" height="30" as="geometry" />
        </mxCell>
        <mxCell id="NboHHmUT9w5Wk8Y239MS-238" value="" style="group" parent="NboHHmUT9w5Wk8Y239MS-222" vertex="1" connectable="0">
          <mxGeometry x="40" y="40" width="40" height="40" as="geometry" />
        </mxCell>
        <mxCell id="NboHHmUT9w5Wk8Y239MS-239" value="" style="whiteSpace=wrap;html=1;aspect=fixed;rounded=1;shadow=0;fillColor=#f5f5f5;fontColor=#333333;strokeColor=#666666;" parent="NboHHmUT9w5Wk8Y239MS-238" vertex="1">
          <mxGeometry width="40" height="40" as="geometry" />
        </mxCell>
        <mxCell id="NboHHmUT9w5Wk8Y239MS-240" value="S" style="whiteSpace=wrap;html=1;aspect=fixed;rounded=1;shadow=0;fontSize=6;fontStyle=1" parent="NboHHmUT9w5Wk8Y239MS-238" vertex="1">
          <mxGeometry x="5" y="5" width="30" height="30" as="geometry" />
        </mxCell>
        <mxCell id="NboHHmUT9w5Wk8Y239MS-241" value="" style="group" parent="NboHHmUT9w5Wk8Y239MS-222" vertex="1" connectable="0">
          <mxGeometry y="40" width="40" height="40" as="geometry" />
        </mxCell>
        <mxCell id="NboHHmUT9w5Wk8Y239MS-242" value="" style="whiteSpace=wrap;html=1;aspect=fixed;rounded=1;shadow=0;fillColor=#f5f5f5;fontColor=#333333;strokeColor=#666666;" parent="NboHHmUT9w5Wk8Y239MS-241" vertex="1">
          <mxGeometry width="40" height="40" as="geometry" />
        </mxCell>
        <mxCell id="NboHHmUT9w5Wk8Y239MS-243" value="A" style="whiteSpace=wrap;html=1;aspect=fixed;rounded=1;shadow=0;fontSize=6;fontStyle=1" parent="NboHHmUT9w5Wk8Y239MS-241" vertex="1">
          <mxGeometry x="5" y="5" width="30" height="30" as="geometry" />
        </mxCell>
        <mxCell id="NboHHmUT9w5Wk8Y239MS-244" value="" style="group" parent="NboHHmUT9w5Wk8Y239MS-222" vertex="1" connectable="0">
          <mxGeometry x="120" y="40" width="40" height="40" as="geometry" />
        </mxCell>
        <mxCell id="NboHHmUT9w5Wk8Y239MS-245" value="" style="whiteSpace=wrap;html=1;aspect=fixed;rounded=1;shadow=0;fillColor=#f5f5f5;fontColor=#333333;strokeColor=#666666;" parent="NboHHmUT9w5Wk8Y239MS-244" vertex="1">
          <mxGeometry width="40" height="40" as="geometry" />
        </mxCell>
        <mxCell id="NboHHmUT9w5Wk8Y239MS-246" value="F" style="whiteSpace=wrap;html=1;aspect=fixed;rounded=1;shadow=0;fontSize=6;fontStyle=1" parent="NboHHmUT9w5Wk8Y239MS-244" vertex="1">
          <mxGeometry x="5" y="5" width="30" height="30" as="geometry" />
        </mxCell>
        <mxCell id="NboHHmUT9w5Wk8Y239MS-247" value="" style="group" parent="NboHHmUT9w5Wk8Y239MS-222" vertex="1" connectable="0">
          <mxGeometry x="160" y="40" width="40" height="40" as="geometry" />
        </mxCell>
        <mxCell id="NboHHmUT9w5Wk8Y239MS-248" value="" style="whiteSpace=wrap;html=1;aspect=fixed;rounded=1;shadow=0;fillColor=#f5f5f5;fontColor=#333333;strokeColor=#666666;" parent="NboHHmUT9w5Wk8Y239MS-247" vertex="1">
          <mxGeometry width="40" height="40" as="geometry" />
        </mxCell>
        <mxCell id="NboHHmUT9w5Wk8Y239MS-249" value="G" style="whiteSpace=wrap;html=1;aspect=fixed;rounded=1;shadow=0;fontSize=6;fontStyle=1" parent="NboHHmUT9w5Wk8Y239MS-247" vertex="1">
          <mxGeometry x="5" y="5" width="30" height="30" as="geometry" />
        </mxCell>
        <mxCell id="NboHHmUT9w5Wk8Y239MS-250" value="" style="group" parent="NboHHmUT9w5Wk8Y239MS-222" vertex="1" connectable="0">
          <mxGeometry x="80" y="40" width="40" height="40" as="geometry" />
        </mxCell>
        <mxCell id="NboHHmUT9w5Wk8Y239MS-251" value="" style="whiteSpace=wrap;html=1;aspect=fixed;rounded=1;shadow=0;fillColor=#f5f5f5;fontColor=#333333;strokeColor=#666666;" parent="NboHHmUT9w5Wk8Y239MS-250" vertex="1">
          <mxGeometry width="40" height="40" as="geometry" />
        </mxCell>
        <mxCell id="NboHHmUT9w5Wk8Y239MS-252" value="D" style="whiteSpace=wrap;html=1;aspect=fixed;rounded=1;shadow=0;fontSize=6;fontStyle=1" parent="NboHHmUT9w5Wk8Y239MS-250" vertex="1">
          <mxGeometry x="5" y="5" width="30" height="30" as="geometry" />
        </mxCell>
        <mxCell id="NboHHmUT9w5Wk8Y239MS-253" value="" style="group" parent="NboHHmUT9w5Wk8Y239MS-222" vertex="1" connectable="0">
          <mxGeometry x="80" y="80" width="80" height="40" as="geometry" />
        </mxCell>
        <mxCell id="NboHHmUT9w5Wk8Y239MS-254" value="" style="whiteSpace=wrap;html=1;aspect=fixed;rounded=1;shadow=0;fillColor=#f5f5f5;fontColor=#333333;strokeColor=#666666;" parent="NboHHmUT9w5Wk8Y239MS-253" vertex="1">
          <mxGeometry width="40" height="40" as="geometry" />
        </mxCell>
        <mxCell id="NboHHmUT9w5Wk8Y239MS-255" value="C" style="whiteSpace=wrap;html=1;aspect=fixed;rounded=1;shadow=0;fontSize=6;fontStyle=1" parent="NboHHmUT9w5Wk8Y239MS-253" vertex="1">
          <mxGeometry x="5" y="5" width="30" height="30" as="geometry" />
        </mxCell>
        <mxCell id="NboHHmUT9w5Wk8Y239MS-256" value="" style="group" parent="NboHHmUT9w5Wk8Y239MS-253" vertex="1" connectable="0">
          <mxGeometry x="40" width="40" height="40" as="geometry" />
        </mxCell>
        <mxCell id="NboHHmUT9w5Wk8Y239MS-257" value="" style="whiteSpace=wrap;html=1;aspect=fixed;rounded=1;shadow=0;fillColor=#f5f5f5;fontColor=#333333;strokeColor=#666666;" parent="NboHHmUT9w5Wk8Y239MS-256" vertex="1">
          <mxGeometry width="40" height="40" as="geometry" />
        </mxCell>
        <mxCell id="NboHHmUT9w5Wk8Y239MS-258" value="V" style="whiteSpace=wrap;html=1;aspect=fixed;rounded=1;shadow=0;fontSize=6;fontStyle=1" parent="NboHHmUT9w5Wk8Y239MS-256" vertex="1">
          <mxGeometry x="5" y="5" width="30" height="30" as="geometry" />
        </mxCell>
        <mxCell id="NboHHmUT9w5Wk8Y239MS-259" value="" style="group" parent="NboHHmUT9w5Wk8Y239MS-222" vertex="1" connectable="0">
          <mxGeometry x="160" y="80" width="40" height="40" as="geometry" />
        </mxCell>
        <mxCell id="NboHHmUT9w5Wk8Y239MS-260" value="" style="whiteSpace=wrap;html=1;aspect=fixed;rounded=1;shadow=0;fillColor=#f5f5f5;fontColor=#333333;strokeColor=#666666;" parent="NboHHmUT9w5Wk8Y239MS-259" vertex="1">
          <mxGeometry width="40" height="40" as="geometry" />
        </mxCell>
        <mxCell id="NboHHmUT9w5Wk8Y239MS-261" value="B" style="whiteSpace=wrap;html=1;aspect=fixed;rounded=1;shadow=0;fontSize=6;fontStyle=1" parent="NboHHmUT9w5Wk8Y239MS-259" vertex="1">
          <mxGeometry x="5" y="5" width="30" height="30" as="geometry" />
        </mxCell>
        <mxCell id="NboHHmUT9w5Wk8Y239MS-262" value="" style="group" parent="NboHHmUT9w5Wk8Y239MS-222" vertex="1" connectable="0">
          <mxGeometry x="40" y="80" width="40" height="40" as="geometry" />
        </mxCell>
        <mxCell id="NboHHmUT9w5Wk8Y239MS-263" value="" style="whiteSpace=wrap;html=1;aspect=fixed;rounded=1;shadow=0;fillColor=#f5f5f5;fontColor=#333333;strokeColor=#666666;" parent="NboHHmUT9w5Wk8Y239MS-262" vertex="1">
          <mxGeometry width="40" height="40" as="geometry" />
        </mxCell>
        <mxCell id="NboHHmUT9w5Wk8Y239MS-264" value="X" style="whiteSpace=wrap;html=1;aspect=fixed;rounded=1;shadow=0;fontSize=6;fontStyle=1" parent="NboHHmUT9w5Wk8Y239MS-262" vertex="1">
          <mxGeometry x="5" y="5" width="30" height="30" as="geometry" />
        </mxCell>
        <mxCell id="NboHHmUT9w5Wk8Y239MS-265" value="" style="group" parent="NboHHmUT9w5Wk8Y239MS-222" vertex="1" connectable="0">
          <mxGeometry y="80" width="40" height="40" as="geometry" />
        </mxCell>
        <mxCell id="NboHHmUT9w5Wk8Y239MS-266" value="" style="whiteSpace=wrap;html=1;aspect=fixed;rounded=1;shadow=0;fillColor=#f5f5f5;fontColor=#333333;strokeColor=#666666;" parent="NboHHmUT9w5Wk8Y239MS-265" vertex="1">
          <mxGeometry width="40" height="40" as="geometry" />
        </mxCell>
        <mxCell id="NboHHmUT9w5Wk8Y239MS-267" value="Z" style="whiteSpace=wrap;html=1;aspect=fixed;rounded=1;shadow=0;fontSize=6;fontStyle=1" parent="NboHHmUT9w5Wk8Y239MS-265" vertex="1">
          <mxGeometry x="5" y="5" width="30" height="30" as="geometry" />
        </mxCell>
        <mxCell id="NboHHmUT9w5Wk8Y239MS-268" value="" style="group" parent="NboHHmUT9w5Wk8Y239MS-222" vertex="1" connectable="0">
          <mxGeometry x="120" y="120" width="40" height="40" as="geometry" />
        </mxCell>
        <mxCell id="NboHHmUT9w5Wk8Y239MS-269" value="" style="whiteSpace=wrap;html=1;aspect=fixed;rounded=1;shadow=0;fillColor=#d5e8d4;strokeColor=#82b366;" parent="NboHHmUT9w5Wk8Y239MS-268" vertex="1">
          <mxGeometry width="40" height="40" as="geometry" />
        </mxCell>
        <mxCell id="NboHHmUT9w5Wk8Y239MS-270" value="" style="whiteSpace=wrap;html=1;aspect=fixed;rounded=1;shadow=0;fontSize=6;fontStyle=1;fillColor=#d5e8d4;strokeColor=#82b366;" parent="NboHHmUT9w5Wk8Y239MS-268" vertex="1">
          <mxGeometry x="5" y="5" width="30" height="30" as="geometry" />
        </mxCell>
        <mxCell id="NboHHmUT9w5Wk8Y239MS-271" value="" style="group" parent="NboHHmUT9w5Wk8Y239MS-222" vertex="1" connectable="0">
          <mxGeometry x="160" y="120" width="40" height="40" as="geometry" />
        </mxCell>
        <mxCell id="NboHHmUT9w5Wk8Y239MS-272" value="" style="whiteSpace=wrap;html=1;aspect=fixed;rounded=1;shadow=0;fillColor=#e1d5e7;strokeColor=#9673a6;" parent="NboHHmUT9w5Wk8Y239MS-271" vertex="1">
          <mxGeometry width="40" height="40" as="geometry" />
        </mxCell>
        <mxCell id="NboHHmUT9w5Wk8Y239MS-273" value="space" style="whiteSpace=wrap;html=1;aspect=fixed;rounded=1;shadow=0;fontSize=6;fontStyle=1;fillColor=#e1d5e7;strokeColor=#9673a6;" parent="NboHHmUT9w5Wk8Y239MS-271" vertex="1">
          <mxGeometry x="5" y="5" width="30" height="30" as="geometry" />
        </mxCell>
        <mxCell id="NboHHmUT9w5Wk8Y239MS-274" value="" style="group" parent="NboHHmUT9w5Wk8Y239MS-222" vertex="1" connectable="0">
          <mxGeometry x="200" y="120" width="40" height="40" as="geometry" />
        </mxCell>
        <mxCell id="NboHHmUT9w5Wk8Y239MS-275" value="" style="whiteSpace=wrap;html=1;aspect=fixed;rounded=1;shadow=0;fillColor=#fff2cc;strokeColor=#d6b656;" parent="NboHHmUT9w5Wk8Y239MS-274" vertex="1">
          <mxGeometry width="40" height="40" as="geometry" />
        </mxCell>
        <mxCell id="NboHHmUT9w5Wk8Y239MS-276" value="Enter" style="whiteSpace=wrap;html=1;aspect=fixed;rounded=1;shadow=0;fontSize=6;fontStyle=1;fillColor=#fff2cc;strokeColor=#d6b656;" parent="NboHHmUT9w5Wk8Y239MS-274" vertex="1">
          <mxGeometry x="5" y="5" width="30" height="30" as="geometry" />
        </mxCell>
        <mxCell id="NboHHmUT9w5Wk8Y239MS-277" value="" style="group" parent="NboHHmUT9w5Wk8Y239MS-222" vertex="1" connectable="0">
          <mxGeometry x="320" width="40" height="40" as="geometry" />
        </mxCell>
        <mxCell id="NboHHmUT9w5Wk8Y239MS-278" value="" style="whiteSpace=wrap;html=1;aspect=fixed;rounded=1;shadow=0;fillColor=#f5f5f5;fontColor=#333333;strokeColor=#666666;" parent="NboHHmUT9w5Wk8Y239MS-277" vertex="1">
          <mxGeometry width="40" height="40" as="geometry" />
        </mxCell>
        <mxCell id="NboHHmUT9w5Wk8Y239MS-279" value="Y" style="whiteSpace=wrap;html=1;aspect=fixed;rounded=1;shadow=0;fontSize=6;fontStyle=1" parent="NboHHmUT9w5Wk8Y239MS-277" vertex="1">
          <mxGeometry x="5" y="5" width="30" height="30" as="geometry" />
        </mxCell>
        <mxCell id="NboHHmUT9w5Wk8Y239MS-280" value="" style="group" parent="NboHHmUT9w5Wk8Y239MS-222" vertex="1" connectable="0">
          <mxGeometry x="360" width="40" height="40" as="geometry" />
        </mxCell>
        <mxCell id="NboHHmUT9w5Wk8Y239MS-281" value="" style="whiteSpace=wrap;html=1;aspect=fixed;rounded=1;shadow=0;fillColor=#f5f5f5;fontColor=#333333;strokeColor=#666666;" parent="NboHHmUT9w5Wk8Y239MS-280" vertex="1">
          <mxGeometry width="40" height="40" as="geometry" />
        </mxCell>
        <mxCell id="NboHHmUT9w5Wk8Y239MS-282" value="U" style="whiteSpace=wrap;html=1;aspect=fixed;rounded=1;shadow=0;fontSize=6;fontStyle=1" parent="NboHHmUT9w5Wk8Y239MS-280" vertex="1">
          <mxGeometry x="5" y="5" width="30" height="30" as="geometry" />
        </mxCell>
        <mxCell id="NboHHmUT9w5Wk8Y239MS-283" value="" style="group" parent="NboHHmUT9w5Wk8Y239MS-222" vertex="1" connectable="0">
          <mxGeometry x="400" width="40" height="40" as="geometry" />
        </mxCell>
        <mxCell id="NboHHmUT9w5Wk8Y239MS-284" value="" style="whiteSpace=wrap;html=1;aspect=fixed;rounded=1;shadow=0;fillColor=#f5f5f5;fontColor=#333333;strokeColor=#666666;" parent="NboHHmUT9w5Wk8Y239MS-283" vertex="1">
          <mxGeometry width="40" height="40" as="geometry" />
        </mxCell>
        <mxCell id="NboHHmUT9w5Wk8Y239MS-285" value="I" style="whiteSpace=wrap;html=1;aspect=fixed;rounded=1;shadow=0;fontSize=6;fontStyle=1" parent="NboHHmUT9w5Wk8Y239MS-283" vertex="1">
          <mxGeometry x="5" y="5" width="30" height="30" as="geometry" />
        </mxCell>
        <mxCell id="NboHHmUT9w5Wk8Y239MS-286" value="" style="group" parent="NboHHmUT9w5Wk8Y239MS-222" vertex="1" connectable="0">
          <mxGeometry x="440" width="40" height="40" as="geometry" />
        </mxCell>
        <mxCell id="NboHHmUT9w5Wk8Y239MS-287" value="" style="whiteSpace=wrap;html=1;aspect=fixed;rounded=1;shadow=0;fillColor=#f5f5f5;fontColor=#333333;strokeColor=#666666;" parent="NboHHmUT9w5Wk8Y239MS-286" vertex="1">
          <mxGeometry width="40" height="40" as="geometry" />
        </mxCell>
        <mxCell id="NboHHmUT9w5Wk8Y239MS-288" value="O" style="whiteSpace=wrap;html=1;aspect=fixed;rounded=1;shadow=0;fontSize=6;fontStyle=1" parent="NboHHmUT9w5Wk8Y239MS-286" vertex="1">
          <mxGeometry x="5" y="5" width="30" height="30" as="geometry" />
        </mxCell>
        <mxCell id="NboHHmUT9w5Wk8Y239MS-289" value="" style="group" parent="NboHHmUT9w5Wk8Y239MS-222" vertex="1" connectable="0">
          <mxGeometry x="480" width="40" height="40" as="geometry" />
        </mxCell>
        <mxCell id="NboHHmUT9w5Wk8Y239MS-290" value="" style="whiteSpace=wrap;html=1;aspect=fixed;rounded=1;shadow=0;fillColor=#f5f5f5;fontColor=#333333;strokeColor=#666666;" parent="NboHHmUT9w5Wk8Y239MS-289" vertex="1">
          <mxGeometry width="40" height="40" as="geometry" />
        </mxCell>
        <mxCell id="NboHHmUT9w5Wk8Y239MS-291" value="P" style="whiteSpace=wrap;html=1;aspect=fixed;rounded=1;shadow=0;fontSize=6;fontStyle=1" parent="NboHHmUT9w5Wk8Y239MS-289" vertex="1">
          <mxGeometry x="5" y="5" width="30" height="30" as="geometry" />
        </mxCell>
        <mxCell id="NboHHmUT9w5Wk8Y239MS-292" value="" style="group" parent="NboHHmUT9w5Wk8Y239MS-222" vertex="1" connectable="0">
          <mxGeometry x="360" y="40" width="40" height="40" as="geometry" />
        </mxCell>
        <mxCell id="NboHHmUT9w5Wk8Y239MS-293" value="" style="whiteSpace=wrap;html=1;aspect=fixed;rounded=1;shadow=0;fillColor=#f5f5f5;fontColor=#333333;strokeColor=#666666;" parent="NboHHmUT9w5Wk8Y239MS-292" vertex="1">
          <mxGeometry width="40" height="40" as="geometry" />
        </mxCell>
        <mxCell id="NboHHmUT9w5Wk8Y239MS-294" value="J" style="whiteSpace=wrap;html=1;aspect=fixed;rounded=1;shadow=0;fontSize=6;fontStyle=1" parent="NboHHmUT9w5Wk8Y239MS-292" vertex="1">
          <mxGeometry x="5" y="5" width="30" height="30" as="geometry" />
        </mxCell>
        <mxCell id="NboHHmUT9w5Wk8Y239MS-295" value="" style="group" parent="NboHHmUT9w5Wk8Y239MS-222" vertex="1" connectable="0">
          <mxGeometry x="320" y="40" width="40" height="40" as="geometry" />
        </mxCell>
        <mxCell id="NboHHmUT9w5Wk8Y239MS-296" value="" style="whiteSpace=wrap;html=1;aspect=fixed;rounded=1;shadow=0;fillColor=#f5f5f5;fontColor=#333333;strokeColor=#666666;" parent="NboHHmUT9w5Wk8Y239MS-295" vertex="1">
          <mxGeometry width="40" height="40" as="geometry" />
        </mxCell>
        <mxCell id="NboHHmUT9w5Wk8Y239MS-297" value="H" style="whiteSpace=wrap;html=1;aspect=fixed;rounded=1;shadow=0;fontSize=6;fontStyle=1" parent="NboHHmUT9w5Wk8Y239MS-295" vertex="1">
          <mxGeometry x="5" y="5" width="30" height="30" as="geometry" />
        </mxCell>
        <mxCell id="NboHHmUT9w5Wk8Y239MS-298" value="" style="group" parent="NboHHmUT9w5Wk8Y239MS-222" vertex="1" connectable="0">
          <mxGeometry x="440" y="40" width="40" height="40" as="geometry" />
        </mxCell>
        <mxCell id="NboHHmUT9w5Wk8Y239MS-299" value="" style="whiteSpace=wrap;html=1;aspect=fixed;rounded=1;shadow=0;fillColor=#f5f5f5;fontColor=#333333;strokeColor=#666666;" parent="NboHHmUT9w5Wk8Y239MS-298" vertex="1">
          <mxGeometry width="40" height="40" as="geometry" />
        </mxCell>
        <mxCell id="NboHHmUT9w5Wk8Y239MS-300" value="L" style="whiteSpace=wrap;html=1;aspect=fixed;rounded=1;shadow=0;fontSize=6;fontStyle=1" parent="NboHHmUT9w5Wk8Y239MS-298" vertex="1">
          <mxGeometry x="5" y="5" width="30" height="30" as="geometry" />
        </mxCell>
        <mxCell id="NboHHmUT9w5Wk8Y239MS-301" value="" style="group" parent="NboHHmUT9w5Wk8Y239MS-222" vertex="1" connectable="0">
          <mxGeometry x="480" y="40" width="40" height="40" as="geometry" />
        </mxCell>
        <mxCell id="NboHHmUT9w5Wk8Y239MS-302" value="" style="whiteSpace=wrap;html=1;aspect=fixed;rounded=1;shadow=0;fillColor=#f5f5f5;fontColor=#333333;strokeColor=#666666;" parent="NboHHmUT9w5Wk8Y239MS-301" vertex="1">
          <mxGeometry width="40" height="40" as="geometry" />
        </mxCell>
        <mxCell id="NboHHmUT9w5Wk8Y239MS-303" value=":&lt;div&gt;;&lt;/div&gt;" style="whiteSpace=wrap;html=1;aspect=fixed;rounded=1;shadow=0;fontSize=6;fontStyle=1" parent="NboHHmUT9w5Wk8Y239MS-301" vertex="1">
          <mxGeometry x="5" y="5" width="30" height="30" as="geometry" />
        </mxCell>
        <mxCell id="NboHHmUT9w5Wk8Y239MS-304" value="" style="group" parent="NboHHmUT9w5Wk8Y239MS-222" vertex="1" connectable="0">
          <mxGeometry x="400" y="40" width="40" height="40" as="geometry" />
        </mxCell>
        <mxCell id="NboHHmUT9w5Wk8Y239MS-305" value="" style="whiteSpace=wrap;html=1;aspect=fixed;rounded=1;shadow=0;fillColor=#f5f5f5;fontColor=#333333;strokeColor=#666666;" parent="NboHHmUT9w5Wk8Y239MS-304" vertex="1">
          <mxGeometry width="40" height="40" as="geometry" />
        </mxCell>
        <mxCell id="NboHHmUT9w5Wk8Y239MS-306" value="K" style="whiteSpace=wrap;html=1;aspect=fixed;rounded=1;shadow=0;fontSize=6;fontStyle=1" parent="NboHHmUT9w5Wk8Y239MS-304" vertex="1">
          <mxGeometry x="5" y="5" width="30" height="30" as="geometry" />
        </mxCell>
        <mxCell id="NboHHmUT9w5Wk8Y239MS-307" value="" style="group" parent="NboHHmUT9w5Wk8Y239MS-222" vertex="1" connectable="0">
          <mxGeometry x="400" y="80" width="80" height="40" as="geometry" />
        </mxCell>
        <mxCell id="NboHHmUT9w5Wk8Y239MS-308" value="" style="whiteSpace=wrap;html=1;aspect=fixed;rounded=1;shadow=0;fillColor=#f5f5f5;fontColor=#333333;strokeColor=#666666;" parent="NboHHmUT9w5Wk8Y239MS-307" vertex="1">
          <mxGeometry width="40" height="40" as="geometry" />
        </mxCell>
        <mxCell id="NboHHmUT9w5Wk8Y239MS-309" value="&amp;lt;&lt;div&gt;,&lt;/div&gt;" style="whiteSpace=wrap;html=1;aspect=fixed;rounded=1;shadow=0;fontSize=6;fontStyle=1" parent="NboHHmUT9w5Wk8Y239MS-307" vertex="1">
          <mxGeometry x="5" y="5" width="30" height="30" as="geometry" />
        </mxCell>
        <mxCell id="NboHHmUT9w5Wk8Y239MS-310" value="" style="group" parent="NboHHmUT9w5Wk8Y239MS-307" vertex="1" connectable="0">
          <mxGeometry x="40" width="40" height="40" as="geometry" />
        </mxCell>
        <mxCell id="NboHHmUT9w5Wk8Y239MS-311" value="" style="whiteSpace=wrap;html=1;aspect=fixed;rounded=1;shadow=0;fillColor=#f5f5f5;fontColor=#333333;strokeColor=#666666;" parent="NboHHmUT9w5Wk8Y239MS-310" vertex="1">
          <mxGeometry width="40" height="40" as="geometry" />
        </mxCell>
        <mxCell id="NboHHmUT9w5Wk8Y239MS-312" value="&amp;gt;&lt;div&gt;.&lt;/div&gt;" style="whiteSpace=wrap;html=1;aspect=fixed;rounded=1;shadow=0;fontSize=6;fontStyle=1" parent="NboHHmUT9w5Wk8Y239MS-310" vertex="1">
          <mxGeometry x="5" y="5" width="30" height="30" as="geometry" />
        </mxCell>
        <mxCell id="NboHHmUT9w5Wk8Y239MS-313" value="" style="group" parent="NboHHmUT9w5Wk8Y239MS-222" vertex="1" connectable="0">
          <mxGeometry x="480" y="80" width="40" height="40" as="geometry" />
        </mxCell>
        <mxCell id="NboHHmUT9w5Wk8Y239MS-314" value="" style="whiteSpace=wrap;html=1;aspect=fixed;rounded=1;shadow=0;fillColor=#f5f5f5;fontColor=#333333;strokeColor=#666666;" parent="NboHHmUT9w5Wk8Y239MS-313" vertex="1">
          <mxGeometry width="40" height="40" as="geometry" />
        </mxCell>
        <mxCell id="NboHHmUT9w5Wk8Y239MS-315" value="?&lt;div&gt;/&lt;/div&gt;" style="whiteSpace=wrap;html=1;aspect=fixed;rounded=1;shadow=0;fontSize=6;fontStyle=1" parent="NboHHmUT9w5Wk8Y239MS-313" vertex="1">
          <mxGeometry x="6" y="5" width="30" height="30" as="geometry" />
        </mxCell>
        <mxCell id="NboHHmUT9w5Wk8Y239MS-316" value="" style="group" parent="NboHHmUT9w5Wk8Y239MS-222" vertex="1" connectable="0">
          <mxGeometry x="360" y="80" width="40" height="40" as="geometry" />
        </mxCell>
        <mxCell id="NboHHmUT9w5Wk8Y239MS-317" value="" style="whiteSpace=wrap;html=1;aspect=fixed;rounded=1;shadow=0;fillColor=#f5f5f5;fontColor=#333333;strokeColor=#666666;" parent="NboHHmUT9w5Wk8Y239MS-316" vertex="1">
          <mxGeometry width="40" height="40" as="geometry" />
        </mxCell>
        <mxCell id="NboHHmUT9w5Wk8Y239MS-318" value="M" style="whiteSpace=wrap;html=1;aspect=fixed;rounded=1;shadow=0;fontSize=6;fontStyle=1" parent="NboHHmUT9w5Wk8Y239MS-316" vertex="1">
          <mxGeometry x="5" y="5" width="30" height="30" as="geometry" />
        </mxCell>
        <mxCell id="NboHHmUT9w5Wk8Y239MS-319" value="" style="group" parent="NboHHmUT9w5Wk8Y239MS-222" vertex="1" connectable="0">
          <mxGeometry x="320" y="80" width="40" height="40" as="geometry" />
        </mxCell>
        <mxCell id="NboHHmUT9w5Wk8Y239MS-320" value="" style="whiteSpace=wrap;html=1;aspect=fixed;rounded=1;shadow=0;fillColor=#f5f5f5;fontColor=#333333;strokeColor=#666666;" parent="NboHHmUT9w5Wk8Y239MS-319" vertex="1">
          <mxGeometry width="40" height="40" as="geometry" />
        </mxCell>
        <mxCell id="NboHHmUT9w5Wk8Y239MS-321" value="N" style="whiteSpace=wrap;html=1;aspect=fixed;rounded=1;shadow=0;fontSize=6;fontStyle=1" parent="NboHHmUT9w5Wk8Y239MS-319" vertex="1">
          <mxGeometry x="5" y="5" width="30" height="30" as="geometry" />
        </mxCell>
        <mxCell id="NboHHmUT9w5Wk8Y239MS-322" value="" style="group;fillColor=#f8cecc;strokeColor=#b85450;" parent="NboHHmUT9w5Wk8Y239MS-222" vertex="1" connectable="0">
          <mxGeometry x="320" y="120" width="40" height="40" as="geometry" />
        </mxCell>
        <mxCell id="NboHHmUT9w5Wk8Y239MS-323" value="" style="whiteSpace=wrap;html=1;aspect=fixed;rounded=1;shadow=0;fillColor=#f8cecc;strokeColor=#b85450;" parent="NboHHmUT9w5Wk8Y239MS-322" vertex="1">
          <mxGeometry width="40" height="40" as="geometry" />
        </mxCell>
        <mxCell id="NboHHmUT9w5Wk8Y239MS-324" value="Backspace" style="whiteSpace=wrap;html=1;aspect=fixed;rounded=1;shadow=0;fontSize=6;fontStyle=1;fillColor=#f8cecc;strokeColor=#b85450;" parent="NboHHmUT9w5Wk8Y239MS-322" vertex="1">
          <mxGeometry x="5" y="5" width="30" height="30" as="geometry" />
        </mxCell>
        <mxCell id="NboHHmUT9w5Wk8Y239MS-325" value="" style="group" parent="NboHHmUT9w5Wk8Y239MS-222" vertex="1" connectable="0">
          <mxGeometry x="280" y="120" width="40" height="40" as="geometry" />
        </mxCell>
        <mxCell id="NboHHmUT9w5Wk8Y239MS-326" value="" style="whiteSpace=wrap;html=1;aspect=fixed;rounded=1;shadow=0;" parent="NboHHmUT9w5Wk8Y239MS-325" vertex="1">
          <mxGeometry width="40" height="40" as="geometry" />
        </mxCell>
        <mxCell id="NboHHmUT9w5Wk8Y239MS-327" value="Shift" style="whiteSpace=wrap;html=1;aspect=fixed;rounded=1;shadow=0;fontSize=6;fontStyle=1;" parent="NboHHmUT9w5Wk8Y239MS-325" vertex="1">
          <mxGeometry x="5" y="5" width="30" height="30" as="geometry" />
        </mxCell>
        <mxCell id="NboHHmUT9w5Wk8Y239MS-328" value="" style="group" parent="1" vertex="1" connectable="0">
          <mxGeometry x="200" y="1009" width="520" height="160" as="geometry" />
        </mxCell>
        <mxCell id="NboHHmUT9w5Wk8Y239MS-329" value="" style="group" parent="NboHHmUT9w5Wk8Y239MS-328" vertex="1" connectable="0">
          <mxGeometry width="40" height="40" as="geometry" />
        </mxCell>
        <mxCell id="NboHHmUT9w5Wk8Y239MS-330" value="" style="whiteSpace=wrap;html=1;aspect=fixed;rounded=1;shadow=0;fillColor=#f5f5f5;fontColor=#333333;strokeColor=#666666;" parent="NboHHmUT9w5Wk8Y239MS-329" vertex="1">
          <mxGeometry width="40" height="40" as="geometry" />
        </mxCell>
        <mxCell id="NboHHmUT9w5Wk8Y239MS-331" value="Tab" style="whiteSpace=wrap;html=1;aspect=fixed;rounded=1;shadow=0;fontSize=6;fontStyle=1" parent="NboHHmUT9w5Wk8Y239MS-329" vertex="1">
          <mxGeometry x="5" y="5" width="30" height="30" as="geometry" />
        </mxCell>
        <mxCell id="NboHHmUT9w5Wk8Y239MS-332" value="" style="group" parent="NboHHmUT9w5Wk8Y239MS-328" vertex="1" connectable="0">
          <mxGeometry x="40" width="40" height="40" as="geometry" />
        </mxCell>
        <mxCell id="NboHHmUT9w5Wk8Y239MS-333" value="" style="whiteSpace=wrap;html=1;aspect=fixed;rounded=1;shadow=0;fillColor=#f5f5f5;fontColor=#333333;strokeColor=#666666;" parent="NboHHmUT9w5Wk8Y239MS-332" vertex="1">
          <mxGeometry width="40" height="40" as="geometry" />
        </mxCell>
        <mxCell id="NboHHmUT9w5Wk8Y239MS-334" value="" style="whiteSpace=wrap;html=1;aspect=fixed;rounded=1;shadow=0;fontSize=6;fontStyle=1" parent="NboHHmUT9w5Wk8Y239MS-332" vertex="1">
          <mxGeometry x="5" y="5" width="30" height="30" as="geometry" />
        </mxCell>
        <mxCell id="NboHHmUT9w5Wk8Y239MS-335" value="" style="group" parent="NboHHmUT9w5Wk8Y239MS-328" vertex="1" connectable="0">
          <mxGeometry x="80" width="40" height="40" as="geometry" />
        </mxCell>
        <mxCell id="NboHHmUT9w5Wk8Y239MS-336" value="" style="whiteSpace=wrap;html=1;aspect=fixed;rounded=1;shadow=0;fillColor=#f5f5f5;fontColor=#333333;strokeColor=#666666;" parent="NboHHmUT9w5Wk8Y239MS-335" vertex="1">
          <mxGeometry width="40" height="40" as="geometry" />
        </mxCell>
        <mxCell id="NboHHmUT9w5Wk8Y239MS-337" value="" style="whiteSpace=wrap;html=1;aspect=fixed;rounded=1;shadow=0;fontSize=6;fontStyle=1" parent="NboHHmUT9w5Wk8Y239MS-335" vertex="1">
          <mxGeometry x="5" y="5" width="30" height="30" as="geometry" />
        </mxCell>
        <mxCell id="NboHHmUT9w5Wk8Y239MS-338" value="" style="group" parent="NboHHmUT9w5Wk8Y239MS-328" vertex="1" connectable="0">
          <mxGeometry x="120" width="40" height="40" as="geometry" />
        </mxCell>
        <mxCell id="NboHHmUT9w5Wk8Y239MS-339" value="" style="whiteSpace=wrap;html=1;aspect=fixed;rounded=1;shadow=0;fillColor=#f5f5f5;fontColor=#333333;strokeColor=#666666;" parent="NboHHmUT9w5Wk8Y239MS-338" vertex="1">
          <mxGeometry width="40" height="40" as="geometry" />
        </mxCell>
        <mxCell id="NboHHmUT9w5Wk8Y239MS-340" value="" style="whiteSpace=wrap;html=1;aspect=fixed;rounded=1;shadow=0;fontSize=6;fontStyle=1" parent="NboHHmUT9w5Wk8Y239MS-338" vertex="1">
          <mxGeometry x="5" y="5" width="30" height="30" as="geometry" />
        </mxCell>
        <mxCell id="NboHHmUT9w5Wk8Y239MS-341" value="" style="group" parent="NboHHmUT9w5Wk8Y239MS-328" vertex="1" connectable="0">
          <mxGeometry x="160" width="40" height="40" as="geometry" />
        </mxCell>
        <mxCell id="NboHHmUT9w5Wk8Y239MS-342" value="" style="whiteSpace=wrap;html=1;aspect=fixed;rounded=1;shadow=0;fillColor=#f5f5f5;fontColor=#333333;strokeColor=#666666;" parent="NboHHmUT9w5Wk8Y239MS-341" vertex="1">
          <mxGeometry width="40" height="40" as="geometry" />
        </mxCell>
        <mxCell id="NboHHmUT9w5Wk8Y239MS-343" value="" style="whiteSpace=wrap;html=1;aspect=fixed;rounded=1;shadow=0;fontSize=6;fontStyle=1" parent="NboHHmUT9w5Wk8Y239MS-341" vertex="1">
          <mxGeometry x="5" y="5" width="30" height="30" as="geometry" />
        </mxCell>
        <mxCell id="NboHHmUT9w5Wk8Y239MS-344" value="" style="group" parent="NboHHmUT9w5Wk8Y239MS-328" vertex="1" connectable="0">
          <mxGeometry x="40" y="40" width="40" height="40" as="geometry" />
        </mxCell>
        <mxCell id="NboHHmUT9w5Wk8Y239MS-345" value="" style="whiteSpace=wrap;html=1;aspect=fixed;rounded=1;shadow=0;fillColor=#f5f5f5;fontColor=#333333;strokeColor=#666666;" parent="NboHHmUT9w5Wk8Y239MS-344" vertex="1">
          <mxGeometry width="40" height="40" as="geometry" />
        </mxCell>
        <mxCell id="NboHHmUT9w5Wk8Y239MS-346" value="" style="whiteSpace=wrap;html=1;aspect=fixed;rounded=1;shadow=0;fontSize=6;fontStyle=1" parent="NboHHmUT9w5Wk8Y239MS-344" vertex="1">
          <mxGeometry x="5" y="5" width="30" height="30" as="geometry" />
        </mxCell>
        <mxCell id="NboHHmUT9w5Wk8Y239MS-347" value="" style="group" parent="NboHHmUT9w5Wk8Y239MS-328" vertex="1" connectable="0">
          <mxGeometry y="40" width="40" height="40" as="geometry" />
        </mxCell>
        <mxCell id="NboHHmUT9w5Wk8Y239MS-348" value="" style="whiteSpace=wrap;html=1;aspect=fixed;rounded=1;shadow=0;fillColor=#f5f5f5;fontColor=#333333;strokeColor=#666666;" parent="NboHHmUT9w5Wk8Y239MS-347" vertex="1">
          <mxGeometry width="40" height="40" as="geometry" />
        </mxCell>
        <mxCell id="NboHHmUT9w5Wk8Y239MS-349" value="CAPS" style="whiteSpace=wrap;html=1;aspect=fixed;rounded=1;shadow=0;fontSize=6;fontStyle=1" parent="NboHHmUT9w5Wk8Y239MS-347" vertex="1">
          <mxGeometry x="5" y="5" width="30" height="30" as="geometry" />
        </mxCell>
        <mxCell id="NboHHmUT9w5Wk8Y239MS-350" value="" style="group" parent="NboHHmUT9w5Wk8Y239MS-328" vertex="1" connectable="0">
          <mxGeometry x="120" y="40" width="40" height="40" as="geometry" />
        </mxCell>
        <mxCell id="NboHHmUT9w5Wk8Y239MS-351" value="" style="whiteSpace=wrap;html=1;aspect=fixed;rounded=1;shadow=0;fillColor=#f5f5f5;fontColor=#333333;strokeColor=#666666;" parent="NboHHmUT9w5Wk8Y239MS-350" vertex="1">
          <mxGeometry width="40" height="40" as="geometry" />
        </mxCell>
        <mxCell id="NboHHmUT9w5Wk8Y239MS-352" value="" style="whiteSpace=wrap;html=1;aspect=fixed;rounded=1;shadow=0;fontSize=6;fontStyle=1" parent="NboHHmUT9w5Wk8Y239MS-350" vertex="1">
          <mxGeometry x="5" y="5" width="30" height="30" as="geometry" />
        </mxCell>
        <mxCell id="NboHHmUT9w5Wk8Y239MS-353" value="" style="group" parent="NboHHmUT9w5Wk8Y239MS-328" vertex="1" connectable="0">
          <mxGeometry x="160" y="40" width="40" height="40" as="geometry" />
        </mxCell>
        <mxCell id="NboHHmUT9w5Wk8Y239MS-354" value="" style="whiteSpace=wrap;html=1;aspect=fixed;rounded=1;shadow=0;fillColor=#f5f5f5;fontColor=#333333;strokeColor=#666666;" parent="NboHHmUT9w5Wk8Y239MS-353" vertex="1">
          <mxGeometry width="40" height="40" as="geometry" />
        </mxCell>
        <mxCell id="NboHHmUT9w5Wk8Y239MS-355" value="" style="whiteSpace=wrap;html=1;aspect=fixed;rounded=1;shadow=0;fontSize=6;fontStyle=1" parent="NboHHmUT9w5Wk8Y239MS-353" vertex="1">
          <mxGeometry x="5" y="5" width="30" height="30" as="geometry" />
        </mxCell>
        <mxCell id="NboHHmUT9w5Wk8Y239MS-356" value="" style="group" parent="NboHHmUT9w5Wk8Y239MS-328" vertex="1" connectable="0">
          <mxGeometry x="80" y="40" width="40" height="40" as="geometry" />
        </mxCell>
        <mxCell id="NboHHmUT9w5Wk8Y239MS-357" value="" style="whiteSpace=wrap;html=1;aspect=fixed;rounded=1;shadow=0;fillColor=#f5f5f5;fontColor=#333333;strokeColor=#666666;" parent="NboHHmUT9w5Wk8Y239MS-356" vertex="1">
          <mxGeometry width="40" height="40" as="geometry" />
        </mxCell>
        <mxCell id="NboHHmUT9w5Wk8Y239MS-358" value="" style="whiteSpace=wrap;html=1;aspect=fixed;rounded=1;shadow=0;fontSize=6;fontStyle=1" parent="NboHHmUT9w5Wk8Y239MS-356" vertex="1">
          <mxGeometry x="5" y="5" width="30" height="30" as="geometry" />
        </mxCell>
        <mxCell id="NboHHmUT9w5Wk8Y239MS-359" value="" style="group" parent="NboHHmUT9w5Wk8Y239MS-328" vertex="1" connectable="0">
          <mxGeometry x="80" y="80" width="80" height="40" as="geometry" />
        </mxCell>
        <mxCell id="NboHHmUT9w5Wk8Y239MS-360" value="" style="whiteSpace=wrap;html=1;aspect=fixed;rounded=1;shadow=0;fillColor=#f5f5f5;fontColor=#333333;strokeColor=#666666;" parent="NboHHmUT9w5Wk8Y239MS-359" vertex="1">
          <mxGeometry width="40" height="40" as="geometry" />
        </mxCell>
        <mxCell id="NboHHmUT9w5Wk8Y239MS-361" value="Del" style="whiteSpace=wrap;html=1;aspect=fixed;rounded=1;shadow=0;fontSize=6;fontStyle=1" parent="NboHHmUT9w5Wk8Y239MS-359" vertex="1">
          <mxGeometry x="5" y="5" width="30" height="30" as="geometry" />
        </mxCell>
        <mxCell id="NboHHmUT9w5Wk8Y239MS-362" value="" style="group" parent="NboHHmUT9w5Wk8Y239MS-359" vertex="1" connectable="0">
          <mxGeometry x="40" width="40" height="40" as="geometry" />
        </mxCell>
        <mxCell id="NboHHmUT9w5Wk8Y239MS-363" value="" style="whiteSpace=wrap;html=1;aspect=fixed;rounded=1;shadow=0;fillColor=#f5f5f5;fontColor=#333333;strokeColor=#666666;" parent="NboHHmUT9w5Wk8Y239MS-362" vertex="1">
          <mxGeometry width="40" height="40" as="geometry" />
        </mxCell>
        <mxCell id="NboHHmUT9w5Wk8Y239MS-364" value="" style="whiteSpace=wrap;html=1;aspect=fixed;rounded=1;shadow=0;fontSize=6;fontStyle=1" parent="NboHHmUT9w5Wk8Y239MS-362" vertex="1">
          <mxGeometry x="5" y="5" width="30" height="30" as="geometry" />
        </mxCell>
        <mxCell id="NboHHmUT9w5Wk8Y239MS-365" value="" style="group" parent="NboHHmUT9w5Wk8Y239MS-328" vertex="1" connectable="0">
          <mxGeometry x="160" y="80" width="40" height="40" as="geometry" />
        </mxCell>
        <mxCell id="NboHHmUT9w5Wk8Y239MS-366" value="" style="whiteSpace=wrap;html=1;aspect=fixed;rounded=1;shadow=0;fillColor=#f5f5f5;fontColor=#333333;strokeColor=#666666;" parent="NboHHmUT9w5Wk8Y239MS-365" vertex="1">
          <mxGeometry width="40" height="40" as="geometry" />
        </mxCell>
        <mxCell id="NboHHmUT9w5Wk8Y239MS-367" value="" style="whiteSpace=wrap;html=1;aspect=fixed;rounded=1;shadow=0;fontSize=6;fontStyle=1" parent="NboHHmUT9w5Wk8Y239MS-365" vertex="1">
          <mxGeometry x="5" y="5" width="30" height="30" as="geometry" />
        </mxCell>
        <mxCell id="NboHHmUT9w5Wk8Y239MS-368" value="" style="group" parent="NboHHmUT9w5Wk8Y239MS-328" vertex="1" connectable="0">
          <mxGeometry x="40" y="80" width="40" height="40" as="geometry" />
        </mxCell>
        <mxCell id="NboHHmUT9w5Wk8Y239MS-369" value="" style="whiteSpace=wrap;html=1;aspect=fixed;rounded=1;shadow=0;fillColor=#f5f5f5;fontColor=#333333;strokeColor=#666666;" parent="NboHHmUT9w5Wk8Y239MS-368" vertex="1">
          <mxGeometry width="40" height="40" as="geometry" />
        </mxCell>
        <mxCell id="NboHHmUT9w5Wk8Y239MS-370" value="Alt" style="whiteSpace=wrap;html=1;aspect=fixed;rounded=1;shadow=0;fontSize=6;fontStyle=1" parent="NboHHmUT9w5Wk8Y239MS-368" vertex="1">
          <mxGeometry x="5" y="5" width="30" height="30" as="geometry" />
        </mxCell>
        <mxCell id="NboHHmUT9w5Wk8Y239MS-371" value="" style="group" parent="NboHHmUT9w5Wk8Y239MS-328" vertex="1" connectable="0">
          <mxGeometry y="80" width="40" height="40" as="geometry" />
        </mxCell>
        <mxCell id="NboHHmUT9w5Wk8Y239MS-372" value="" style="whiteSpace=wrap;html=1;aspect=fixed;rounded=1;shadow=0;fillColor=#f5f5f5;fontColor=#333333;strokeColor=#666666;" parent="NboHHmUT9w5Wk8Y239MS-371" vertex="1">
          <mxGeometry width="40" height="40" as="geometry" />
        </mxCell>
        <mxCell id="NboHHmUT9w5Wk8Y239MS-373" value="Ctrl" style="whiteSpace=wrap;html=1;aspect=fixed;rounded=1;shadow=0;fontSize=6;fontStyle=1" parent="NboHHmUT9w5Wk8Y239MS-371" vertex="1">
          <mxGeometry x="5" y="5" width="30" height="30" as="geometry" />
        </mxCell>
        <mxCell id="NboHHmUT9w5Wk8Y239MS-374" value="" style="group" parent="NboHHmUT9w5Wk8Y239MS-328" vertex="1" connectable="0">
          <mxGeometry x="120" y="120" width="40" height="40" as="geometry" />
        </mxCell>
        <mxCell id="NboHHmUT9w5Wk8Y239MS-375" value="" style="whiteSpace=wrap;html=1;aspect=fixed;rounded=1;shadow=0;fillColor=#f5f5f5;fontColor=#333333;strokeColor=#666666;" parent="NboHHmUT9w5Wk8Y239MS-374" vertex="1">
          <mxGeometry width="40" height="40" as="geometry" />
        </mxCell>
        <mxCell id="NboHHmUT9w5Wk8Y239MS-376" value="" style="whiteSpace=wrap;html=1;aspect=fixed;rounded=1;shadow=0;fontSize=6;fontStyle=1" parent="NboHHmUT9w5Wk8Y239MS-374" vertex="1">
          <mxGeometry x="5" y="5" width="30" height="30" as="geometry" />
        </mxCell>
        <mxCell id="NboHHmUT9w5Wk8Y239MS-377" value="" style="group" parent="NboHHmUT9w5Wk8Y239MS-328" vertex="1" connectable="0">
          <mxGeometry x="160" y="120" width="40" height="40" as="geometry" />
        </mxCell>
        <mxCell id="NboHHmUT9w5Wk8Y239MS-378" value="" style="whiteSpace=wrap;html=1;aspect=fixed;rounded=1;shadow=0;fillColor=#f5f5f5;fontColor=#333333;strokeColor=#666666;" parent="NboHHmUT9w5Wk8Y239MS-377" vertex="1">
          <mxGeometry width="40" height="40" as="geometry" />
        </mxCell>
        <mxCell id="NboHHmUT9w5Wk8Y239MS-379" value="" style="whiteSpace=wrap;html=1;aspect=fixed;rounded=1;shadow=0;fontSize=6;fontStyle=1" parent="NboHHmUT9w5Wk8Y239MS-377" vertex="1">
          <mxGeometry x="5" y="5" width="30" height="30" as="geometry" />
        </mxCell>
        <mxCell id="NboHHmUT9w5Wk8Y239MS-380" value="" style="group" parent="NboHHmUT9w5Wk8Y239MS-328" vertex="1" connectable="0">
          <mxGeometry x="200" y="120" width="40" height="40" as="geometry" />
        </mxCell>
        <mxCell id="NboHHmUT9w5Wk8Y239MS-381" value="" style="whiteSpace=wrap;html=1;aspect=fixed;rounded=1;shadow=0;fillColor=#fff2cc;strokeColor=#d6b656;" parent="NboHHmUT9w5Wk8Y239MS-380" vertex="1">
          <mxGeometry width="40" height="40" as="geometry" />
        </mxCell>
        <mxCell id="NboHHmUT9w5Wk8Y239MS-382" value="" style="whiteSpace=wrap;html=1;aspect=fixed;rounded=1;shadow=0;fontSize=6;fontStyle=1;fillColor=#fff2cc;strokeColor=#d6b656;" parent="NboHHmUT9w5Wk8Y239MS-380" vertex="1">
          <mxGeometry x="5" y="5" width="30" height="30" as="geometry" />
        </mxCell>
        <mxCell id="NboHHmUT9w5Wk8Y239MS-383" value="" style="group" parent="NboHHmUT9w5Wk8Y239MS-328" vertex="1" connectable="0">
          <mxGeometry x="320" width="40" height="40" as="geometry" />
        </mxCell>
        <mxCell id="NboHHmUT9w5Wk8Y239MS-384" value="" style="whiteSpace=wrap;html=1;aspect=fixed;rounded=1;shadow=0;fillColor=#f5f5f5;fontColor=#333333;strokeColor=#666666;" parent="NboHHmUT9w5Wk8Y239MS-383" vertex="1">
          <mxGeometry width="40" height="40" as="geometry" />
        </mxCell>
        <mxCell id="NboHHmUT9w5Wk8Y239MS-385" value="" style="whiteSpace=wrap;html=1;aspect=fixed;rounded=1;shadow=0;fontSize=6;fontStyle=1" parent="NboHHmUT9w5Wk8Y239MS-383" vertex="1">
          <mxGeometry x="5" y="5" width="30" height="30" as="geometry" />
        </mxCell>
        <mxCell id="NboHHmUT9w5Wk8Y239MS-386" value="" style="group" parent="NboHHmUT9w5Wk8Y239MS-328" vertex="1" connectable="0">
          <mxGeometry x="360" width="40" height="40" as="geometry" />
        </mxCell>
        <mxCell id="NboHHmUT9w5Wk8Y239MS-387" value="" style="whiteSpace=wrap;html=1;aspect=fixed;rounded=1;shadow=0;fillColor=#f5f5f5;fontColor=#333333;strokeColor=#666666;" parent="NboHHmUT9w5Wk8Y239MS-386" vertex="1">
          <mxGeometry width="40" height="40" as="geometry" />
        </mxCell>
        <mxCell id="NboHHmUT9w5Wk8Y239MS-388" value="F7" style="whiteSpace=wrap;html=1;aspect=fixed;rounded=1;shadow=0;fontSize=6;fontStyle=1" parent="NboHHmUT9w5Wk8Y239MS-386" vertex="1">
          <mxGeometry x="5" y="5" width="30" height="30" as="geometry" />
        </mxCell>
        <mxCell id="NboHHmUT9w5Wk8Y239MS-389" value="" style="group" parent="NboHHmUT9w5Wk8Y239MS-328" vertex="1" connectable="0">
          <mxGeometry x="400" width="40" height="40" as="geometry" />
        </mxCell>
        <mxCell id="NboHHmUT9w5Wk8Y239MS-390" value="" style="whiteSpace=wrap;html=1;aspect=fixed;rounded=1;shadow=0;fillColor=#f5f5f5;fontColor=#333333;strokeColor=#666666;" parent="NboHHmUT9w5Wk8Y239MS-389" vertex="1">
          <mxGeometry width="40" height="40" as="geometry" />
        </mxCell>
        <mxCell id="NboHHmUT9w5Wk8Y239MS-391" value="F8" style="whiteSpace=wrap;html=1;aspect=fixed;rounded=1;shadow=0;fontSize=6;fontStyle=1" parent="NboHHmUT9w5Wk8Y239MS-389" vertex="1">
          <mxGeometry x="5" y="5" width="30" height="30" as="geometry" />
        </mxCell>
        <mxCell id="NboHHmUT9w5Wk8Y239MS-392" value="" style="group" parent="NboHHmUT9w5Wk8Y239MS-328" vertex="1" connectable="0">
          <mxGeometry x="440" width="40" height="40" as="geometry" />
        </mxCell>
        <mxCell id="NboHHmUT9w5Wk8Y239MS-393" value="" style="whiteSpace=wrap;html=1;aspect=fixed;rounded=1;shadow=0;fillColor=#f5f5f5;fontColor=#333333;strokeColor=#666666;" parent="NboHHmUT9w5Wk8Y239MS-392" vertex="1">
          <mxGeometry width="40" height="40" as="geometry" />
        </mxCell>
        <mxCell id="NboHHmUT9w5Wk8Y239MS-394" value="F9" style="whiteSpace=wrap;html=1;aspect=fixed;rounded=1;shadow=0;fontSize=6;fontStyle=1" parent="NboHHmUT9w5Wk8Y239MS-392" vertex="1">
          <mxGeometry x="5" y="5" width="30" height="30" as="geometry" />
        </mxCell>
        <mxCell id="NboHHmUT9w5Wk8Y239MS-395" value="" style="group" parent="NboHHmUT9w5Wk8Y239MS-328" vertex="1" connectable="0">
          <mxGeometry x="480" width="40" height="40" as="geometry" />
        </mxCell>
        <mxCell id="NboHHmUT9w5Wk8Y239MS-396" value="" style="whiteSpace=wrap;html=1;aspect=fixed;rounded=1;shadow=0;fillColor=#f5f5f5;fontColor=#333333;strokeColor=#666666;" parent="NboHHmUT9w5Wk8Y239MS-395" vertex="1">
          <mxGeometry width="40" height="40" as="geometry" />
        </mxCell>
        <mxCell id="NboHHmUT9w5Wk8Y239MS-397" value="F12" style="whiteSpace=wrap;html=1;aspect=fixed;rounded=1;shadow=0;fontSize=6;fontStyle=1" parent="NboHHmUT9w5Wk8Y239MS-395" vertex="1">
          <mxGeometry x="5" y="5" width="30" height="30" as="geometry" />
        </mxCell>
        <mxCell id="NboHHmUT9w5Wk8Y239MS-398" value="" style="group" parent="NboHHmUT9w5Wk8Y239MS-328" vertex="1" connectable="0">
          <mxGeometry x="360" y="40" width="40" height="40" as="geometry" />
        </mxCell>
        <mxCell id="NboHHmUT9w5Wk8Y239MS-399" value="" style="whiteSpace=wrap;html=1;aspect=fixed;rounded=1;shadow=0;fillColor=#f5f5f5;fontColor=#333333;strokeColor=#666666;" parent="NboHHmUT9w5Wk8Y239MS-398" vertex="1">
          <mxGeometry width="40" height="40" as="geometry" />
        </mxCell>
        <mxCell id="NboHHmUT9w5Wk8Y239MS-400" value="F4" style="whiteSpace=wrap;html=1;aspect=fixed;rounded=1;shadow=0;fontSize=6;fontStyle=1" parent="NboHHmUT9w5Wk8Y239MS-398" vertex="1">
          <mxGeometry x="5" y="5" width="30" height="30" as="geometry" />
        </mxCell>
        <mxCell id="NboHHmUT9w5Wk8Y239MS-401" value="" style="group" parent="NboHHmUT9w5Wk8Y239MS-328" vertex="1" connectable="0">
          <mxGeometry x="320" y="40" width="40" height="40" as="geometry" />
        </mxCell>
        <mxCell id="NboHHmUT9w5Wk8Y239MS-402" value="" style="whiteSpace=wrap;html=1;aspect=fixed;rounded=1;shadow=0;fillColor=#f5f5f5;fontColor=#333333;strokeColor=#666666;" parent="NboHHmUT9w5Wk8Y239MS-401" vertex="1">
          <mxGeometry width="40" height="40" as="geometry" />
        </mxCell>
        <mxCell id="NboHHmUT9w5Wk8Y239MS-403" value="" style="whiteSpace=wrap;html=1;aspect=fixed;rounded=1;shadow=0;fontSize=6;fontStyle=1" parent="NboHHmUT9w5Wk8Y239MS-401" vertex="1">
          <mxGeometry x="5" y="5" width="30" height="30" as="geometry" />
        </mxCell>
        <mxCell id="NboHHmUT9w5Wk8Y239MS-404" value="" style="group" parent="NboHHmUT9w5Wk8Y239MS-328" vertex="1" connectable="0">
          <mxGeometry x="440" y="40" width="40" height="40" as="geometry" />
        </mxCell>
        <mxCell id="NboHHmUT9w5Wk8Y239MS-405" value="" style="whiteSpace=wrap;html=1;aspect=fixed;rounded=1;shadow=0;fillColor=#f5f5f5;fontColor=#333333;strokeColor=#666666;" parent="NboHHmUT9w5Wk8Y239MS-404" vertex="1">
          <mxGeometry width="40" height="40" as="geometry" />
        </mxCell>
        <mxCell id="NboHHmUT9w5Wk8Y239MS-406" value="F6" style="whiteSpace=wrap;html=1;aspect=fixed;rounded=1;shadow=0;fontSize=6;fontStyle=1" parent="NboHHmUT9w5Wk8Y239MS-404" vertex="1">
          <mxGeometry x="5" y="5" width="30" height="30" as="geometry" />
        </mxCell>
        <mxCell id="NboHHmUT9w5Wk8Y239MS-407" value="" style="group" parent="NboHHmUT9w5Wk8Y239MS-328" vertex="1" connectable="0">
          <mxGeometry x="480" y="40" width="40" height="40" as="geometry" />
        </mxCell>
        <mxCell id="NboHHmUT9w5Wk8Y239MS-408" value="" style="whiteSpace=wrap;html=1;aspect=fixed;rounded=1;shadow=0;fillColor=#f5f5f5;fontColor=#333333;strokeColor=#666666;" parent="NboHHmUT9w5Wk8Y239MS-407" vertex="1">
          <mxGeometry width="40" height="40" as="geometry" />
        </mxCell>
        <mxCell id="NboHHmUT9w5Wk8Y239MS-409" value="F11" style="whiteSpace=wrap;html=1;aspect=fixed;rounded=1;shadow=0;fontSize=6;fontStyle=1" parent="NboHHmUT9w5Wk8Y239MS-407" vertex="1">
          <mxGeometry x="5" y="5" width="30" height="30" as="geometry" />
        </mxCell>
        <mxCell id="NboHHmUT9w5Wk8Y239MS-410" value="" style="group" parent="NboHHmUT9w5Wk8Y239MS-328" vertex="1" connectable="0">
          <mxGeometry x="400" y="40" width="40" height="40" as="geometry" />
        </mxCell>
        <mxCell id="NboHHmUT9w5Wk8Y239MS-411" value="" style="whiteSpace=wrap;html=1;aspect=fixed;rounded=1;shadow=0;fillColor=#f5f5f5;fontColor=#333333;strokeColor=#666666;" parent="NboHHmUT9w5Wk8Y239MS-410" vertex="1">
          <mxGeometry width="40" height="40" as="geometry" />
        </mxCell>
        <mxCell id="NboHHmUT9w5Wk8Y239MS-412" value="F5" style="whiteSpace=wrap;html=1;aspect=fixed;rounded=1;shadow=0;fontSize=6;fontStyle=1" parent="NboHHmUT9w5Wk8Y239MS-410" vertex="1">
          <mxGeometry x="5" y="5" width="30" height="30" as="geometry" />
        </mxCell>
        <mxCell id="NboHHmUT9w5Wk8Y239MS-413" value="" style="group" parent="NboHHmUT9w5Wk8Y239MS-328" vertex="1" connectable="0">
          <mxGeometry x="400" y="80" width="80" height="40" as="geometry" />
        </mxCell>
        <mxCell id="NboHHmUT9w5Wk8Y239MS-414" value="" style="whiteSpace=wrap;html=1;aspect=fixed;rounded=1;shadow=0;fillColor=#f5f5f5;fontColor=#333333;strokeColor=#666666;" parent="NboHHmUT9w5Wk8Y239MS-413" vertex="1">
          <mxGeometry width="40" height="40" as="geometry" />
        </mxCell>
        <mxCell id="NboHHmUT9w5Wk8Y239MS-415" value="F2" style="whiteSpace=wrap;html=1;aspect=fixed;rounded=1;shadow=0;fontSize=6;fontStyle=1" parent="NboHHmUT9w5Wk8Y239MS-413" vertex="1">
          <mxGeometry x="5" y="5" width="30" height="30" as="geometry" />
        </mxCell>
        <mxCell id="NboHHmUT9w5Wk8Y239MS-416" value="" style="group" parent="NboHHmUT9w5Wk8Y239MS-413" vertex="1" connectable="0">
          <mxGeometry x="40" width="40" height="40" as="geometry" />
        </mxCell>
        <mxCell id="NboHHmUT9w5Wk8Y239MS-417" value="" style="whiteSpace=wrap;html=1;aspect=fixed;rounded=1;shadow=0;fillColor=#f5f5f5;fontColor=#333333;strokeColor=#666666;" parent="NboHHmUT9w5Wk8Y239MS-416" vertex="1">
          <mxGeometry width="40" height="40" as="geometry" />
        </mxCell>
        <mxCell id="NboHHmUT9w5Wk8Y239MS-418" value="F3" style="whiteSpace=wrap;html=1;aspect=fixed;rounded=1;shadow=0;fontSize=6;fontStyle=1" parent="NboHHmUT9w5Wk8Y239MS-416" vertex="1">
          <mxGeometry x="5" y="5" width="30" height="30" as="geometry" />
        </mxCell>
        <mxCell id="NboHHmUT9w5Wk8Y239MS-419" value="" style="group" parent="NboHHmUT9w5Wk8Y239MS-328" vertex="1" connectable="0">
          <mxGeometry x="480" y="80" width="40" height="40" as="geometry" />
        </mxCell>
        <mxCell id="NboHHmUT9w5Wk8Y239MS-420" value="" style="whiteSpace=wrap;html=1;aspect=fixed;rounded=1;shadow=0;fillColor=#f5f5f5;fontColor=#333333;strokeColor=#666666;" parent="NboHHmUT9w5Wk8Y239MS-419" vertex="1">
          <mxGeometry width="40" height="40" as="geometry" />
        </mxCell>
        <mxCell id="NboHHmUT9w5Wk8Y239MS-421" value="F10" style="whiteSpace=wrap;html=1;aspect=fixed;rounded=1;shadow=0;fontSize=6;fontStyle=1" parent="NboHHmUT9w5Wk8Y239MS-419" vertex="1">
          <mxGeometry x="5" y="5" width="30" height="30" as="geometry" />
        </mxCell>
        <mxCell id="NboHHmUT9w5Wk8Y239MS-422" value="" style="group" parent="NboHHmUT9w5Wk8Y239MS-328" vertex="1" connectable="0">
          <mxGeometry x="360" y="80" width="40" height="40" as="geometry" />
        </mxCell>
        <mxCell id="NboHHmUT9w5Wk8Y239MS-423" value="" style="whiteSpace=wrap;html=1;aspect=fixed;rounded=1;shadow=0;fillColor=#f5f5f5;fontColor=#333333;strokeColor=#666666;" parent="NboHHmUT9w5Wk8Y239MS-422" vertex="1">
          <mxGeometry width="40" height="40" as="geometry" />
        </mxCell>
        <mxCell id="NboHHmUT9w5Wk8Y239MS-424" value="F1" style="whiteSpace=wrap;html=1;aspect=fixed;rounded=1;shadow=0;fontSize=6;fontStyle=1" parent="NboHHmUT9w5Wk8Y239MS-422" vertex="1">
          <mxGeometry x="5" y="5" width="30" height="30" as="geometry" />
        </mxCell>
        <mxCell id="NboHHmUT9w5Wk8Y239MS-425" value="" style="group" parent="NboHHmUT9w5Wk8Y239MS-328" vertex="1" connectable="0">
          <mxGeometry x="320" y="80" width="40" height="40" as="geometry" />
        </mxCell>
        <mxCell id="NboHHmUT9w5Wk8Y239MS-426" value="" style="whiteSpace=wrap;html=1;aspect=fixed;rounded=1;shadow=0;fillColor=#f5f5f5;fontColor=#333333;strokeColor=#666666;" parent="NboHHmUT9w5Wk8Y239MS-425" vertex="1">
          <mxGeometry width="40" height="40" as="geometry" />
        </mxCell>
        <mxCell id="NboHHmUT9w5Wk8Y239MS-427" value="" style="whiteSpace=wrap;html=1;aspect=fixed;rounded=1;shadow=0;fontSize=6;fontStyle=1" parent="NboHHmUT9w5Wk8Y239MS-425" vertex="1">
          <mxGeometry x="5" y="5" width="30" height="30" as="geometry" />
        </mxCell>
        <mxCell id="NboHHmUT9w5Wk8Y239MS-428" value="" style="group" parent="NboHHmUT9w5Wk8Y239MS-328" vertex="1" connectable="0">
          <mxGeometry x="320" y="120" width="40" height="40" as="geometry" />
        </mxCell>
        <mxCell id="NboHHmUT9w5Wk8Y239MS-429" value="" style="whiteSpace=wrap;html=1;aspect=fixed;rounded=1;shadow=0;fillColor=#f5f5f5;fontColor=#333333;strokeColor=#666666;" parent="NboHHmUT9w5Wk8Y239MS-428" vertex="1">
          <mxGeometry width="40" height="40" as="geometry" />
        </mxCell>
        <mxCell id="NboHHmUT9w5Wk8Y239MS-430" value="" style="whiteSpace=wrap;html=1;aspect=fixed;rounded=1;shadow=0;fontSize=6;fontStyle=1" parent="NboHHmUT9w5Wk8Y239MS-428" vertex="1">
          <mxGeometry x="5" y="5" width="30" height="30" as="geometry" />
        </mxCell>
        <mxCell id="NboHHmUT9w5Wk8Y239MS-431" value="" style="group" parent="NboHHmUT9w5Wk8Y239MS-328" vertex="1" connectable="0">
          <mxGeometry x="280" y="120" width="40" height="40" as="geometry" />
        </mxCell>
        <mxCell id="NboHHmUT9w5Wk8Y239MS-432" value="" style="whiteSpace=wrap;html=1;aspect=fixed;rounded=1;shadow=0;fillColor=#f5f5f5;fontColor=#333333;strokeColor=#666666;" parent="NboHHmUT9w5Wk8Y239MS-431" vertex="1">
          <mxGeometry width="40" height="40" as="geometry" />
        </mxCell>
        <mxCell id="NboHHmUT9w5Wk8Y239MS-433" value="" style="whiteSpace=wrap;html=1;aspect=fixed;rounded=1;shadow=0;fontSize=6;fontStyle=1" parent="NboHHmUT9w5Wk8Y239MS-431" vertex="1">
          <mxGeometry x="5" y="5" width="30" height="30" as="geometry" />
        </mxCell>
        <mxCell id="NboHHmUT9w5Wk8Y239MS-434" value="Base (0)" style="text;html=1;align=left;verticalAlign=middle;resizable=0;points=[];autosize=1;strokeColor=none;fillColor=none;fontStyle=1;fontSize=16;" parent="1" vertex="1">
          <mxGeometry x="210" y="160" width="80" height="30" as="geometry" />
        </mxCell>
        <mxCell id="NboHHmUT9w5Wk8Y239MS-435" value="Numeral (1)" style="text;html=1;align=left;verticalAlign=middle;resizable=0;points=[];autosize=1;strokeColor=#b85450;fillColor=#f8cecc;fontStyle=1;fontSize=16;" parent="1" vertex="1">
          <mxGeometry x="200" y="370" width="110" height="30" as="geometry" />
        </mxCell>
        <mxCell id="NboHHmUT9w5Wk8Y239MS-436" value="Symbol (2)" style="text;html=1;align=left;verticalAlign=middle;resizable=0;points=[];autosize=1;strokeColor=#9673a6;fillColor=#e1d5e7;fontStyle=1;fontSize=16;" parent="1" vertex="1">
          <mxGeometry x="200" y="570" width="100" height="30" as="geometry" />
        </mxCell>
        <mxCell id="NboHHmUT9w5Wk8Y239MS-438" value="Function (4)" style="text;html=1;align=left;verticalAlign=middle;resizable=0;points=[];autosize=1;strokeColor=#d6b656;fillColor=#fff2cc;fontStyle=1;fontSize=16;" parent="1" vertex="1">
          <mxGeometry x="200" y="970" width="110" height="30" as="geometry" />
        </mxCell>
        <mxCell id="NboHHmUT9w5Wk8Y239MS-547" value="" style="group" parent="1" vertex="1" connectable="0">
          <mxGeometry x="200" y="800" width="520" height="160" as="geometry" />
        </mxCell>
        <mxCell id="NboHHmUT9w5Wk8Y239MS-548" value="" style="group" parent="NboHHmUT9w5Wk8Y239MS-547" vertex="1" connectable="0">
          <mxGeometry width="40" height="40" as="geometry" />
        </mxCell>
        <mxCell id="NboHHmUT9w5Wk8Y239MS-549" value="" style="whiteSpace=wrap;html=1;aspect=fixed;rounded=1;shadow=0;fillColor=#f5f5f5;fontColor=#333333;strokeColor=#666666;" parent="NboHHmUT9w5Wk8Y239MS-548" vertex="1">
          <mxGeometry width="40" height="40" as="geometry" />
        </mxCell>
        <mxCell id="NboHHmUT9w5Wk8Y239MS-550" value="BT 0" style="whiteSpace=wrap;html=1;aspect=fixed;rounded=1;shadow=0;fontSize=6;fontStyle=1" parent="NboHHmUT9w5Wk8Y239MS-548" vertex="1">
          <mxGeometry x="5" y="5" width="30" height="30" as="geometry" />
        </mxCell>
        <mxCell id="NboHHmUT9w5Wk8Y239MS-551" value="" style="group" parent="NboHHmUT9w5Wk8Y239MS-547" vertex="1" connectable="0">
          <mxGeometry x="40" width="40" height="40" as="geometry" />
        </mxCell>
        <mxCell id="NboHHmUT9w5Wk8Y239MS-552" value="" style="whiteSpace=wrap;html=1;aspect=fixed;rounded=1;shadow=0;fillColor=#f5f5f5;fontColor=#333333;strokeColor=#666666;" parent="NboHHmUT9w5Wk8Y239MS-551" vertex="1">
          <mxGeometry width="40" height="40" as="geometry" />
        </mxCell>
        <mxCell id="NboHHmUT9w5Wk8Y239MS-553" value="BT 1" style="whiteSpace=wrap;html=1;aspect=fixed;rounded=1;shadow=0;fontSize=6;fontStyle=1" parent="NboHHmUT9w5Wk8Y239MS-551" vertex="1">
          <mxGeometry x="5" y="5" width="30" height="30" as="geometry" />
        </mxCell>
        <mxCell id="NboHHmUT9w5Wk8Y239MS-554" value="" style="group" parent="NboHHmUT9w5Wk8Y239MS-547" vertex="1" connectable="0">
          <mxGeometry x="80" width="40" height="40" as="geometry" />
        </mxCell>
        <mxCell id="NboHHmUT9w5Wk8Y239MS-555" value="" style="whiteSpace=wrap;html=1;aspect=fixed;rounded=1;shadow=0;fillColor=#f5f5f5;fontColor=#333333;strokeColor=#666666;" parent="NboHHmUT9w5Wk8Y239MS-554" vertex="1">
          <mxGeometry width="40" height="40" as="geometry" />
        </mxCell>
        <mxCell id="NboHHmUT9w5Wk8Y239MS-556" value="BT 2" style="whiteSpace=wrap;html=1;aspect=fixed;rounded=1;shadow=0;fontSize=6;fontStyle=1" parent="NboHHmUT9w5Wk8Y239MS-554" vertex="1">
          <mxGeometry x="5" y="5" width="30" height="30" as="geometry" />
        </mxCell>
        <mxCell id="NboHHmUT9w5Wk8Y239MS-557" value="" style="group" parent="NboHHmUT9w5Wk8Y239MS-547" vertex="1" connectable="0">
          <mxGeometry x="120" width="40" height="40" as="geometry" />
        </mxCell>
        <mxCell id="NboHHmUT9w5Wk8Y239MS-558" value="" style="whiteSpace=wrap;html=1;aspect=fixed;rounded=1;shadow=0;fillColor=#f5f5f5;fontColor=#333333;strokeColor=#666666;" parent="NboHHmUT9w5Wk8Y239MS-557" vertex="1">
          <mxGeometry width="40" height="40" as="geometry" />
        </mxCell>
        <mxCell id="NboHHmUT9w5Wk8Y239MS-559" value="" style="whiteSpace=wrap;html=1;aspect=fixed;rounded=1;shadow=0;fontSize=6;fontStyle=1" parent="NboHHmUT9w5Wk8Y239MS-557" vertex="1">
          <mxGeometry x="5" y="5" width="30" height="30" as="geometry" />
        </mxCell>
        <mxCell id="NboHHmUT9w5Wk8Y239MS-560" value="" style="group" parent="NboHHmUT9w5Wk8Y239MS-547" vertex="1" connectable="0">
          <mxGeometry x="160" width="40" height="40" as="geometry" />
        </mxCell>
        <mxCell id="NboHHmUT9w5Wk8Y239MS-561" value="" style="whiteSpace=wrap;html=1;aspect=fixed;rounded=1;shadow=0;fillColor=#f5f5f5;fontColor=#333333;strokeColor=#666666;" parent="NboHHmUT9w5Wk8Y239MS-560" vertex="1">
          <mxGeometry width="40" height="40" as="geometry" />
        </mxCell>
        <mxCell id="NboHHmUT9w5Wk8Y239MS-562" value="" style="whiteSpace=wrap;html=1;aspect=fixed;rounded=1;shadow=0;fontSize=6;fontStyle=1" parent="NboHHmUT9w5Wk8Y239MS-560" vertex="1">
          <mxGeometry x="5" y="5" width="30" height="30" as="geometry" />
        </mxCell>
        <mxCell id="NboHHmUT9w5Wk8Y239MS-563" value="" style="group" parent="NboHHmUT9w5Wk8Y239MS-547" vertex="1" connectable="0">
          <mxGeometry x="40" y="40" width="40" height="40" as="geometry" />
        </mxCell>
        <mxCell id="NboHHmUT9w5Wk8Y239MS-564" value="" style="whiteSpace=wrap;html=1;aspect=fixed;rounded=1;shadow=0;fillColor=#f5f5f5;fontColor=#333333;strokeColor=#666666;" parent="NboHHmUT9w5Wk8Y239MS-563" vertex="1">
          <mxGeometry width="40" height="40" as="geometry" />
        </mxCell>
        <mxCell id="NboHHmUT9w5Wk8Y239MS-565" value="" style="whiteSpace=wrap;html=1;aspect=fixed;rounded=1;shadow=0;fontSize=6;fontStyle=1" parent="NboHHmUT9w5Wk8Y239MS-563" vertex="1">
          <mxGeometry x="5" y="5" width="30" height="30" as="geometry" />
        </mxCell>
        <mxCell id="NboHHmUT9w5Wk8Y239MS-566" value="" style="group" parent="NboHHmUT9w5Wk8Y239MS-547" vertex="1" connectable="0">
          <mxGeometry y="40" width="40" height="40" as="geometry" />
        </mxCell>
        <mxCell id="NboHHmUT9w5Wk8Y239MS-567" value="" style="whiteSpace=wrap;html=1;aspect=fixed;rounded=1;shadow=0;fillColor=#f5f5f5;fontColor=#333333;strokeColor=#666666;" parent="NboHHmUT9w5Wk8Y239MS-566" vertex="1">
          <mxGeometry width="40" height="40" as="geometry" />
        </mxCell>
        <mxCell id="NboHHmUT9w5Wk8Y239MS-568" value="" style="whiteSpace=wrap;html=1;aspect=fixed;rounded=1;shadow=0;fontSize=6;fontStyle=1" parent="NboHHmUT9w5Wk8Y239MS-566" vertex="1">
          <mxGeometry x="5" y="5" width="30" height="30" as="geometry" />
        </mxCell>
        <mxCell id="NboHHmUT9w5Wk8Y239MS-569" value="" style="group" parent="NboHHmUT9w5Wk8Y239MS-547" vertex="1" connectable="0">
          <mxGeometry x="120" y="40" width="40" height="40" as="geometry" />
        </mxCell>
        <mxCell id="NboHHmUT9w5Wk8Y239MS-570" value="" style="whiteSpace=wrap;html=1;aspect=fixed;rounded=1;shadow=0;fillColor=#f5f5f5;fontColor=#333333;strokeColor=#666666;" parent="NboHHmUT9w5Wk8Y239MS-569" vertex="1">
          <mxGeometry width="40" height="40" as="geometry" />
        </mxCell>
        <mxCell id="NboHHmUT9w5Wk8Y239MS-571" value="Up" style="whiteSpace=wrap;html=1;aspect=fixed;rounded=1;shadow=0;fontSize=6;fontStyle=1" parent="NboHHmUT9w5Wk8Y239MS-569" vertex="1">
          <mxGeometry x="5" y="5" width="30" height="30" as="geometry" />
        </mxCell>
        <mxCell id="NboHHmUT9w5Wk8Y239MS-572" value="" style="group" parent="NboHHmUT9w5Wk8Y239MS-547" vertex="1" connectable="0">
          <mxGeometry x="160" y="40" width="40" height="40" as="geometry" />
        </mxCell>
        <mxCell id="NboHHmUT9w5Wk8Y239MS-573" value="" style="whiteSpace=wrap;html=1;aspect=fixed;rounded=1;shadow=0;fillColor=#f5f5f5;fontColor=#333333;strokeColor=#666666;" parent="NboHHmUT9w5Wk8Y239MS-572" vertex="1">
          <mxGeometry width="40" height="40" as="geometry" />
        </mxCell>
        <mxCell id="NboHHmUT9w5Wk8Y239MS-574" value="" style="whiteSpace=wrap;html=1;aspect=fixed;rounded=1;shadow=0;fontSize=6;fontStyle=1" parent="NboHHmUT9w5Wk8Y239MS-572" vertex="1">
          <mxGeometry x="5" y="5" width="30" height="30" as="geometry" />
        </mxCell>
        <mxCell id="NboHHmUT9w5Wk8Y239MS-575" value="" style="group" parent="NboHHmUT9w5Wk8Y239MS-547" vertex="1" connectable="0">
          <mxGeometry x="80" y="40" width="40" height="40" as="geometry" />
        </mxCell>
        <mxCell id="NboHHmUT9w5Wk8Y239MS-576" value="" style="whiteSpace=wrap;html=1;aspect=fixed;rounded=1;shadow=0;fillColor=#f5f5f5;fontColor=#333333;strokeColor=#666666;" parent="NboHHmUT9w5Wk8Y239MS-575" vertex="1">
          <mxGeometry width="40" height="40" as="geometry" />
        </mxCell>
        <mxCell id="NboHHmUT9w5Wk8Y239MS-577" value="" style="whiteSpace=wrap;html=1;aspect=fixed;rounded=1;shadow=0;fontSize=6;fontStyle=1" parent="NboHHmUT9w5Wk8Y239MS-575" vertex="1">
          <mxGeometry x="5" y="5" width="30" height="30" as="geometry" />
        </mxCell>
        <mxCell id="NboHHmUT9w5Wk8Y239MS-578" value="" style="group" parent="NboHHmUT9w5Wk8Y239MS-547" vertex="1" connectable="0">
          <mxGeometry x="80" y="80" width="80" height="40" as="geometry" />
        </mxCell>
        <mxCell id="NboHHmUT9w5Wk8Y239MS-579" value="" style="whiteSpace=wrap;html=1;aspect=fixed;rounded=1;shadow=0;fillColor=#f5f5f5;fontColor=#333333;strokeColor=#666666;" parent="NboHHmUT9w5Wk8Y239MS-578" vertex="1">
          <mxGeometry width="40" height="40" as="geometry" />
        </mxCell>
        <mxCell id="NboHHmUT9w5Wk8Y239MS-580" value="Left" style="whiteSpace=wrap;html=1;aspect=fixed;rounded=1;shadow=0;fontSize=6;fontStyle=1" parent="NboHHmUT9w5Wk8Y239MS-578" vertex="1">
          <mxGeometry x="5" y="5" width="30" height="30" as="geometry" />
        </mxCell>
        <mxCell id="NboHHmUT9w5Wk8Y239MS-581" value="" style="group" parent="NboHHmUT9w5Wk8Y239MS-578" vertex="1" connectable="0">
          <mxGeometry x="40" width="40" height="40" as="geometry" />
        </mxCell>
        <mxCell id="NboHHmUT9w5Wk8Y239MS-582" value="" style="whiteSpace=wrap;html=1;aspect=fixed;rounded=1;shadow=0;fillColor=#f5f5f5;fontColor=#333333;strokeColor=#666666;" parent="NboHHmUT9w5Wk8Y239MS-581" vertex="1">
          <mxGeometry width="40" height="40" as="geometry" />
        </mxCell>
        <mxCell id="NboHHmUT9w5Wk8Y239MS-583" value="Down" style="whiteSpace=wrap;html=1;aspect=fixed;rounded=1;shadow=0;fontSize=6;fontStyle=1" parent="NboHHmUT9w5Wk8Y239MS-581" vertex="1">
          <mxGeometry x="5" y="5" width="30" height="30" as="geometry" />
        </mxCell>
        <mxCell id="NboHHmUT9w5Wk8Y239MS-584" value="" style="group" parent="NboHHmUT9w5Wk8Y239MS-547" vertex="1" connectable="0">
          <mxGeometry x="160" y="80" width="40" height="40" as="geometry" />
        </mxCell>
        <mxCell id="NboHHmUT9w5Wk8Y239MS-585" value="" style="whiteSpace=wrap;html=1;aspect=fixed;rounded=1;shadow=0;fillColor=#f5f5f5;fontColor=#333333;strokeColor=#666666;" parent="NboHHmUT9w5Wk8Y239MS-584" vertex="1">
          <mxGeometry width="40" height="40" as="geometry" />
        </mxCell>
        <mxCell id="NboHHmUT9w5Wk8Y239MS-586" value="Right" style="whiteSpace=wrap;html=1;aspect=fixed;rounded=1;shadow=0;fontSize=6;fontStyle=1" parent="NboHHmUT9w5Wk8Y239MS-584" vertex="1">
          <mxGeometry x="5" y="5" width="30" height="30" as="geometry" />
        </mxCell>
        <mxCell id="NboHHmUT9w5Wk8Y239MS-587" value="" style="group" parent="NboHHmUT9w5Wk8Y239MS-547" vertex="1" connectable="0">
          <mxGeometry x="40" y="80" width="40" height="40" as="geometry" />
        </mxCell>
        <mxCell id="NboHHmUT9w5Wk8Y239MS-588" value="" style="whiteSpace=wrap;html=1;aspect=fixed;rounded=1;shadow=0;fillColor=#f5f5f5;fontColor=#333333;strokeColor=#666666;" parent="NboHHmUT9w5Wk8Y239MS-587" vertex="1">
          <mxGeometry width="40" height="40" as="geometry" />
        </mxCell>
        <mxCell id="NboHHmUT9w5Wk8Y239MS-589" value="RightClk" style="whiteSpace=wrap;html=1;aspect=fixed;rounded=1;shadow=0;fontSize=6;fontStyle=1" parent="NboHHmUT9w5Wk8Y239MS-587" vertex="1">
          <mxGeometry x="5" y="5" width="30" height="30" as="geometry" />
        </mxCell>
        <mxCell id="NboHHmUT9w5Wk8Y239MS-590" value="" style="group" parent="NboHHmUT9w5Wk8Y239MS-547" vertex="1" connectable="0">
          <mxGeometry y="80" width="40" height="40" as="geometry" />
        </mxCell>
        <mxCell id="NboHHmUT9w5Wk8Y239MS-591" value="" style="whiteSpace=wrap;html=1;aspect=fixed;rounded=1;shadow=0;fillColor=#f5f5f5;fontColor=#333333;strokeColor=#666666;" parent="NboHHmUT9w5Wk8Y239MS-590" vertex="1">
          <mxGeometry width="40" height="40" as="geometry" />
        </mxCell>
        <mxCell id="NboHHmUT9w5Wk8Y239MS-592" value="LeftClk" style="whiteSpace=wrap;html=1;aspect=fixed;rounded=1;shadow=0;fontSize=6;fontStyle=1" parent="NboHHmUT9w5Wk8Y239MS-590" vertex="1">
          <mxGeometry x="5" y="5" width="30" height="30" as="geometry" />
        </mxCell>
        <mxCell id="NboHHmUT9w5Wk8Y239MS-593" value="" style="group" parent="NboHHmUT9w5Wk8Y239MS-547" vertex="1" connectable="0">
          <mxGeometry x="120" y="120" width="40" height="40" as="geometry" />
        </mxCell>
        <mxCell id="NboHHmUT9w5Wk8Y239MS-594" value="" style="whiteSpace=wrap;html=1;aspect=fixed;rounded=1;shadow=0;fillColor=#d5e8d4;strokeColor=#82b366;" parent="NboHHmUT9w5Wk8Y239MS-593" vertex="1">
          <mxGeometry width="40" height="40" as="geometry" />
        </mxCell>
        <mxCell id="NboHHmUT9w5Wk8Y239MS-595" value="Windows" style="whiteSpace=wrap;html=1;aspect=fixed;rounded=1;shadow=0;fontSize=6;fontStyle=1;fillColor=#d5e8d4;strokeColor=#82b366;" parent="NboHHmUT9w5Wk8Y239MS-593" vertex="1">
          <mxGeometry x="5" y="5" width="30" height="30" as="geometry" />
        </mxCell>
        <mxCell id="NboHHmUT9w5Wk8Y239MS-596" value="" style="group" parent="NboHHmUT9w5Wk8Y239MS-547" vertex="1" connectable="0">
          <mxGeometry x="160" y="120" width="40" height="40" as="geometry" />
        </mxCell>
        <mxCell id="NboHHmUT9w5Wk8Y239MS-597" value="" style="whiteSpace=wrap;html=1;aspect=fixed;rounded=1;shadow=0;fillColor=#f5f5f5;fontColor=#333333;strokeColor=#666666;" parent="NboHHmUT9w5Wk8Y239MS-596" vertex="1">
          <mxGeometry width="40" height="40" as="geometry" />
        </mxCell>
        <mxCell id="NboHHmUT9w5Wk8Y239MS-598" value="Windows" style="whiteSpace=wrap;html=1;aspect=fixed;rounded=1;shadow=0;fontSize=6;fontStyle=1" parent="NboHHmUT9w5Wk8Y239MS-596" vertex="1">
          <mxGeometry x="5" y="5" width="30" height="30" as="geometry" />
        </mxCell>
        <mxCell id="NboHHmUT9w5Wk8Y239MS-599" value="" style="group" parent="NboHHmUT9w5Wk8Y239MS-547" vertex="1" connectable="0">
          <mxGeometry x="200" y="120" width="40" height="40" as="geometry" />
        </mxCell>
        <mxCell id="NboHHmUT9w5Wk8Y239MS-600" value="" style="whiteSpace=wrap;html=1;aspect=fixed;rounded=1;shadow=0;fillColor=#f5f5f5;fontColor=#333333;strokeColor=#666666;" parent="NboHHmUT9w5Wk8Y239MS-599" vertex="1">
          <mxGeometry width="40" height="40" as="geometry" />
        </mxCell>
        <mxCell id="NboHHmUT9w5Wk8Y239MS-601" value="" style="whiteSpace=wrap;html=1;aspect=fixed;rounded=1;shadow=0;fontSize=6;fontStyle=1" parent="NboHHmUT9w5Wk8Y239MS-599" vertex="1">
          <mxGeometry x="5" y="5" width="30" height="30" as="geometry" />
        </mxCell>
        <mxCell id="NboHHmUT9w5Wk8Y239MS-602" value="" style="group" parent="NboHHmUT9w5Wk8Y239MS-547" vertex="1" connectable="0">
          <mxGeometry x="320" width="40" height="40" as="geometry" />
        </mxCell>
        <mxCell id="NboHHmUT9w5Wk8Y239MS-603" value="" style="whiteSpace=wrap;html=1;aspect=fixed;rounded=1;shadow=0;fillColor=#f5f5f5;fontColor=#333333;strokeColor=#666666;" parent="NboHHmUT9w5Wk8Y239MS-602" vertex="1">
          <mxGeometry width="40" height="40" as="geometry" />
        </mxCell>
        <mxCell id="NboHHmUT9w5Wk8Y239MS-604" value="" style="whiteSpace=wrap;html=1;aspect=fixed;rounded=1;shadow=0;fontSize=6;fontStyle=1" parent="NboHHmUT9w5Wk8Y239MS-602" vertex="1">
          <mxGeometry x="5" y="5" width="30" height="30" as="geometry" />
        </mxCell>
        <mxCell id="NboHHmUT9w5Wk8Y239MS-605" value="" style="group" parent="NboHHmUT9w5Wk8Y239MS-547" vertex="1" connectable="0">
          <mxGeometry x="360" width="40" height="40" as="geometry" />
        </mxCell>
        <mxCell id="NboHHmUT9w5Wk8Y239MS-606" value="" style="whiteSpace=wrap;html=1;aspect=fixed;rounded=1;shadow=0;fillColor=#f5f5f5;fontColor=#333333;strokeColor=#666666;" parent="NboHHmUT9w5Wk8Y239MS-605" vertex="1">
          <mxGeometry width="40" height="40" as="geometry" />
        </mxCell>
        <mxCell id="NboHHmUT9w5Wk8Y239MS-607" value="" style="whiteSpace=wrap;html=1;aspect=fixed;rounded=1;shadow=0;fontSize=6;fontStyle=1" parent="NboHHmUT9w5Wk8Y239MS-605" vertex="1">
          <mxGeometry x="5" y="5" width="30" height="30" as="geometry" />
        </mxCell>
        <mxCell id="NboHHmUT9w5Wk8Y239MS-608" value="" style="group" parent="NboHHmUT9w5Wk8Y239MS-547" vertex="1" connectable="0">
          <mxGeometry x="400" width="40" height="40" as="geometry" />
        </mxCell>
        <mxCell id="NboHHmUT9w5Wk8Y239MS-609" value="" style="whiteSpace=wrap;html=1;aspect=fixed;rounded=1;shadow=0;fillColor=#f5f5f5;fontColor=#333333;strokeColor=#666666;" parent="NboHHmUT9w5Wk8Y239MS-608" vertex="1">
          <mxGeometry width="40" height="40" as="geometry" />
        </mxCell>
        <mxCell id="NboHHmUT9w5Wk8Y239MS-610" value="" style="whiteSpace=wrap;html=1;aspect=fixed;rounded=1;shadow=0;fontSize=6;fontStyle=1" parent="NboHHmUT9w5Wk8Y239MS-608" vertex="1">
          <mxGeometry x="5" y="5" width="30" height="30" as="geometry" />
        </mxCell>
        <mxCell id="NboHHmUT9w5Wk8Y239MS-611" value="" style="group" parent="NboHHmUT9w5Wk8Y239MS-547" vertex="1" connectable="0">
          <mxGeometry x="440" width="40" height="40" as="geometry" />
        </mxCell>
        <mxCell id="NboHHmUT9w5Wk8Y239MS-612" value="" style="whiteSpace=wrap;html=1;aspect=fixed;rounded=1;shadow=0;fillColor=#f5f5f5;fontColor=#333333;strokeColor=#666666;" parent="NboHHmUT9w5Wk8Y239MS-611" vertex="1">
          <mxGeometry width="40" height="40" as="geometry" />
        </mxCell>
        <mxCell id="NboHHmUT9w5Wk8Y239MS-613" value="" style="whiteSpace=wrap;html=1;aspect=fixed;rounded=1;shadow=0;fontSize=6;fontStyle=1" parent="NboHHmUT9w5Wk8Y239MS-611" vertex="1">
          <mxGeometry x="5" y="5" width="30" height="30" as="geometry" />
        </mxCell>
        <mxCell id="NboHHmUT9w5Wk8Y239MS-614" value="" style="group" parent="NboHHmUT9w5Wk8Y239MS-547" vertex="1" connectable="0">
          <mxGeometry x="480" width="40" height="40" as="geometry" />
        </mxCell>
        <mxCell id="NboHHmUT9w5Wk8Y239MS-615" value="" style="whiteSpace=wrap;html=1;aspect=fixed;rounded=1;shadow=0;fillColor=#f5f5f5;fontColor=#333333;strokeColor=#666666;" parent="NboHHmUT9w5Wk8Y239MS-614" vertex="1">
          <mxGeometry width="40" height="40" as="geometry" />
        </mxCell>
        <mxCell id="NboHHmUT9w5Wk8Y239MS-616" value="Home" style="whiteSpace=wrap;html=1;aspect=fixed;rounded=1;shadow=0;fontSize=6;fontStyle=1" parent="NboHHmUT9w5Wk8Y239MS-614" vertex="1">
          <mxGeometry x="5" y="5" width="30" height="30" as="geometry" />
        </mxCell>
        <mxCell id="NboHHmUT9w5Wk8Y239MS-617" value="" style="group" parent="NboHHmUT9w5Wk8Y239MS-547" vertex="1" connectable="0">
          <mxGeometry x="360" y="40" width="40" height="40" as="geometry" />
        </mxCell>
        <mxCell id="NboHHmUT9w5Wk8Y239MS-618" value="" style="whiteSpace=wrap;html=1;aspect=fixed;rounded=1;shadow=0;fillColor=#f5f5f5;fontColor=#333333;strokeColor=#666666;" parent="NboHHmUT9w5Wk8Y239MS-617" vertex="1">
          <mxGeometry width="40" height="40" as="geometry" />
        </mxCell>
        <mxCell id="NboHHmUT9w5Wk8Y239MS-619" value="" style="whiteSpace=wrap;html=1;aspect=fixed;rounded=1;shadow=0;fontSize=6;fontStyle=1" parent="NboHHmUT9w5Wk8Y239MS-617" vertex="1">
          <mxGeometry x="5" y="5" width="30" height="30" as="geometry" />
        </mxCell>
        <mxCell id="NboHHmUT9w5Wk8Y239MS-620" value="" style="group" parent="NboHHmUT9w5Wk8Y239MS-547" vertex="1" connectable="0">
          <mxGeometry x="320" y="40" width="40" height="40" as="geometry" />
        </mxCell>
        <mxCell id="NboHHmUT9w5Wk8Y239MS-621" value="" style="whiteSpace=wrap;html=1;aspect=fixed;rounded=1;shadow=0;fillColor=#f5f5f5;fontColor=#333333;strokeColor=#666666;" parent="NboHHmUT9w5Wk8Y239MS-620" vertex="1">
          <mxGeometry width="40" height="40" as="geometry" />
        </mxCell>
        <mxCell id="NboHHmUT9w5Wk8Y239MS-622" value="" style="whiteSpace=wrap;html=1;aspect=fixed;rounded=1;shadow=0;fontSize=6;fontStyle=1" parent="NboHHmUT9w5Wk8Y239MS-620" vertex="1">
          <mxGeometry x="5" y="5" width="30" height="30" as="geometry" />
        </mxCell>
        <mxCell id="NboHHmUT9w5Wk8Y239MS-623" value="" style="group" parent="NboHHmUT9w5Wk8Y239MS-547" vertex="1" connectable="0">
          <mxGeometry x="440" y="40" width="40" height="40" as="geometry" />
        </mxCell>
        <mxCell id="NboHHmUT9w5Wk8Y239MS-624" value="" style="whiteSpace=wrap;html=1;aspect=fixed;rounded=1;shadow=0;fillColor=#f5f5f5;fontColor=#333333;strokeColor=#666666;" parent="NboHHmUT9w5Wk8Y239MS-623" vertex="1">
          <mxGeometry width="40" height="40" as="geometry" />
        </mxCell>
        <mxCell id="NboHHmUT9w5Wk8Y239MS-625" value="" style="whiteSpace=wrap;html=1;aspect=fixed;rounded=1;shadow=0;fontSize=6;fontStyle=1" parent="NboHHmUT9w5Wk8Y239MS-623" vertex="1">
          <mxGeometry x="5" y="5" width="30" height="30" as="geometry" />
        </mxCell>
        <mxCell id="NboHHmUT9w5Wk8Y239MS-626" value="" style="group" parent="NboHHmUT9w5Wk8Y239MS-547" vertex="1" connectable="0">
          <mxGeometry x="480" y="40" width="40" height="40" as="geometry" />
        </mxCell>
        <mxCell id="NboHHmUT9w5Wk8Y239MS-627" value="" style="whiteSpace=wrap;html=1;aspect=fixed;rounded=1;shadow=0;fillColor=#f5f5f5;fontColor=#333333;strokeColor=#666666;" parent="NboHHmUT9w5Wk8Y239MS-626" vertex="1">
          <mxGeometry width="40" height="40" as="geometry" />
        </mxCell>
        <mxCell id="NboHHmUT9w5Wk8Y239MS-628" value="End" style="whiteSpace=wrap;html=1;aspect=fixed;rounded=1;shadow=0;fontSize=6;fontStyle=1" parent="NboHHmUT9w5Wk8Y239MS-626" vertex="1">
          <mxGeometry x="5" y="5" width="30" height="30" as="geometry" />
        </mxCell>
        <mxCell id="NboHHmUT9w5Wk8Y239MS-629" value="" style="group" parent="NboHHmUT9w5Wk8Y239MS-547" vertex="1" connectable="0">
          <mxGeometry x="400" y="40" width="40" height="40" as="geometry" />
        </mxCell>
        <mxCell id="NboHHmUT9w5Wk8Y239MS-630" value="" style="whiteSpace=wrap;html=1;aspect=fixed;rounded=1;shadow=0;fillColor=#f5f5f5;fontColor=#333333;strokeColor=#666666;" parent="NboHHmUT9w5Wk8Y239MS-629" vertex="1">
          <mxGeometry width="40" height="40" as="geometry" />
        </mxCell>
        <mxCell id="NboHHmUT9w5Wk8Y239MS-631" value="" style="whiteSpace=wrap;html=1;aspect=fixed;rounded=1;shadow=0;fontSize=6;fontStyle=1" parent="NboHHmUT9w5Wk8Y239MS-629" vertex="1">
          <mxGeometry x="5" y="5" width="30" height="30" as="geometry" />
        </mxCell>
        <mxCell id="NboHHmUT9w5Wk8Y239MS-632" value="" style="group" parent="NboHHmUT9w5Wk8Y239MS-547" vertex="1" connectable="0">
          <mxGeometry x="400" y="80" width="80" height="40" as="geometry" />
        </mxCell>
        <mxCell id="NboHHmUT9w5Wk8Y239MS-633" value="" style="whiteSpace=wrap;html=1;aspect=fixed;rounded=1;shadow=0;fillColor=#f5f5f5;fontColor=#333333;strokeColor=#666666;" parent="NboHHmUT9w5Wk8Y239MS-632" vertex="1">
          <mxGeometry width="40" height="40" as="geometry" />
        </mxCell>
        <mxCell id="NboHHmUT9w5Wk8Y239MS-634" value="" style="whiteSpace=wrap;html=1;aspect=fixed;rounded=1;shadow=0;fontSize=6;fontStyle=1" parent="NboHHmUT9w5Wk8Y239MS-632" vertex="1">
          <mxGeometry x="5" y="5" width="30" height="30" as="geometry" />
        </mxCell>
        <mxCell id="NboHHmUT9w5Wk8Y239MS-635" value="" style="group" parent="NboHHmUT9w5Wk8Y239MS-632" vertex="1" connectable="0">
          <mxGeometry x="40" width="40" height="40" as="geometry" />
        </mxCell>
        <mxCell id="NboHHmUT9w5Wk8Y239MS-636" value="" style="whiteSpace=wrap;html=1;aspect=fixed;rounded=1;shadow=0;fillColor=#f5f5f5;fontColor=#333333;strokeColor=#666666;" parent="NboHHmUT9w5Wk8Y239MS-635" vertex="1">
          <mxGeometry width="40" height="40" as="geometry" />
        </mxCell>
        <mxCell id="NboHHmUT9w5Wk8Y239MS-637" value="" style="whiteSpace=wrap;html=1;aspect=fixed;rounded=1;shadow=0;fontSize=6;fontStyle=1" parent="NboHHmUT9w5Wk8Y239MS-635" vertex="1">
          <mxGeometry x="5" y="5" width="30" height="30" as="geometry" />
        </mxCell>
        <mxCell id="NboHHmUT9w5Wk8Y239MS-638" value="" style="group" parent="NboHHmUT9w5Wk8Y239MS-547" vertex="1" connectable="0">
          <mxGeometry x="480" y="80" width="40" height="40" as="geometry" />
        </mxCell>
        <mxCell id="NboHHmUT9w5Wk8Y239MS-639" value="" style="whiteSpace=wrap;html=1;aspect=fixed;rounded=1;shadow=0;fillColor=#f5f5f5;fontColor=#333333;strokeColor=#666666;" parent="NboHHmUT9w5Wk8Y239MS-638" vertex="1">
          <mxGeometry width="40" height="40" as="geometry" />
        </mxCell>
        <mxCell id="NboHHmUT9w5Wk8Y239MS-640" value="" style="whiteSpace=wrap;html=1;aspect=fixed;rounded=1;shadow=0;fontSize=6;fontStyle=1" parent="NboHHmUT9w5Wk8Y239MS-638" vertex="1">
          <mxGeometry x="5" y="5" width="30" height="30" as="geometry" />
        </mxCell>
        <mxCell id="NboHHmUT9w5Wk8Y239MS-641" value="" style="group" parent="NboHHmUT9w5Wk8Y239MS-547" vertex="1" connectable="0">
          <mxGeometry x="360" y="80" width="40" height="40" as="geometry" />
        </mxCell>
        <mxCell id="NboHHmUT9w5Wk8Y239MS-642" value="" style="whiteSpace=wrap;html=1;aspect=fixed;rounded=1;shadow=0;fillColor=#f5f5f5;fontColor=#333333;strokeColor=#666666;" parent="NboHHmUT9w5Wk8Y239MS-641" vertex="1">
          <mxGeometry width="40" height="40" as="geometry" />
        </mxCell>
        <mxCell id="NboHHmUT9w5Wk8Y239MS-643" value="" style="whiteSpace=wrap;html=1;aspect=fixed;rounded=1;shadow=0;fontSize=6;fontStyle=1" parent="NboHHmUT9w5Wk8Y239MS-641" vertex="1">
          <mxGeometry x="5" y="5" width="30" height="30" as="geometry" />
        </mxCell>
        <mxCell id="NboHHmUT9w5Wk8Y239MS-644" value="" style="group" parent="NboHHmUT9w5Wk8Y239MS-547" vertex="1" connectable="0">
          <mxGeometry x="320" y="80" width="40" height="40" as="geometry" />
        </mxCell>
        <mxCell id="NboHHmUT9w5Wk8Y239MS-645" value="" style="whiteSpace=wrap;html=1;aspect=fixed;rounded=1;shadow=0;fillColor=#f5f5f5;fontColor=#333333;strokeColor=#666666;" parent="NboHHmUT9w5Wk8Y239MS-644" vertex="1">
          <mxGeometry width="40" height="40" as="geometry" />
        </mxCell>
        <mxCell id="NboHHmUT9w5Wk8Y239MS-646" value="" style="whiteSpace=wrap;html=1;aspect=fixed;rounded=1;shadow=0;fontSize=6;fontStyle=1" parent="NboHHmUT9w5Wk8Y239MS-644" vertex="1">
          <mxGeometry x="5" y="5" width="30" height="30" as="geometry" />
        </mxCell>
        <mxCell id="NboHHmUT9w5Wk8Y239MS-647" value="" style="group" parent="NboHHmUT9w5Wk8Y239MS-547" vertex="1" connectable="0">
          <mxGeometry x="320" y="120" width="40" height="40" as="geometry" />
        </mxCell>
        <mxCell id="NboHHmUT9w5Wk8Y239MS-648" value="" style="whiteSpace=wrap;html=1;aspect=fixed;rounded=1;shadow=0;fillColor=#f5f5f5;fontColor=#333333;strokeColor=#666666;" parent="NboHHmUT9w5Wk8Y239MS-647" vertex="1">
          <mxGeometry width="40" height="40" as="geometry" />
        </mxCell>
        <mxCell id="NboHHmUT9w5Wk8Y239MS-649" value="" style="whiteSpace=wrap;html=1;aspect=fixed;rounded=1;shadow=0;fontSize=6;fontStyle=1" parent="NboHHmUT9w5Wk8Y239MS-647" vertex="1">
          <mxGeometry x="5" y="5" width="30" height="30" as="geometry" />
        </mxCell>
        <mxCell id="NboHHmUT9w5Wk8Y239MS-650" value="" style="group" parent="NboHHmUT9w5Wk8Y239MS-547" vertex="1" connectable="0">
          <mxGeometry x="280" y="120" width="40" height="40" as="geometry" />
        </mxCell>
        <mxCell id="NboHHmUT9w5Wk8Y239MS-651" value="" style="whiteSpace=wrap;html=1;aspect=fixed;rounded=1;shadow=0;fillColor=#f5f5f5;fontColor=#333333;strokeColor=#666666;" parent="NboHHmUT9w5Wk8Y239MS-650" vertex="1">
          <mxGeometry width="40" height="40" as="geometry" />
        </mxCell>
        <mxCell id="NboHHmUT9w5Wk8Y239MS-652" value="" style="whiteSpace=wrap;html=1;aspect=fixed;rounded=1;shadow=0;fontSize=6;fontStyle=1" parent="NboHHmUT9w5Wk8Y239MS-650" vertex="1">
          <mxGeometry x="5" y="5" width="30" height="30" as="geometry" />
        </mxCell>
        <mxCell id="NboHHmUT9w5Wk8Y239MS-653" value="Pointer (3)" style="text;html=1;align=left;verticalAlign=middle;resizable=0;points=[];autosize=1;strokeColor=#82b366;fillColor=#d5e8d4;fontStyle=1;fontSize=16;" parent="1" vertex="1">
          <mxGeometry x="200" y="770" width="100" height="30" as="geometry" />
        </mxCell>
        <mxCell id="9LiMOaUNixQt_38JYWJo-5" value="" style="group;fontStyle=1" vertex="1" connectable="0" parent="1">
          <mxGeometry x="420" y="358" width="80" height="30" as="geometry" />
        </mxCell>
        <mxCell id="9LiMOaUNixQt_38JYWJo-2" value="" style="endArrow=none;html=1;rounded=0;" edge="1" parent="9LiMOaUNixQt_38JYWJo-5">
          <mxGeometry width="50" height="50" relative="1" as="geometry">
            <mxPoint y="21.769999999999982" as="sourcePoint" />
            <mxPoint x="80" y="22.19999999999999" as="targetPoint" />
          </mxGeometry>
        </mxCell>
        <mxCell id="9LiMOaUNixQt_38JYWJo-3" value="" style="endArrow=none;html=1;rounded=0;" edge="1" parent="9LiMOaUNixQt_38JYWJo-5">
          <mxGeometry width="50" height="50" relative="1" as="geometry">
            <mxPoint y="22" as="sourcePoint" />
            <mxPoint as="targetPoint" />
          </mxGeometry>
        </mxCell>
        <mxCell id="9LiMOaUNixQt_38JYWJo-4" value="" style="endArrow=none;html=1;rounded=0;" edge="1" parent="9LiMOaUNixQt_38JYWJo-5">
          <mxGeometry width="50" height="50" relative="1" as="geometry">
            <mxPoint x="80" y="22" as="sourcePoint" />
            <mxPoint x="80" as="targetPoint" />
          </mxGeometry>
        </mxCell>
        <mxCell id="9LiMOaUNixQt_38JYWJo-6" value="&lt;b&gt;LWIN&lt;/b&gt;" style="text;html=1;align=center;verticalAlign=middle;resizable=0;points=[];autosize=1;strokeColor=none;fillColor=none;" vertex="1" parent="9LiMOaUNixQt_38JYWJo-5">
          <mxGeometry x="15" width="50" height="30" as="geometry" />
        </mxCell>
        <mxCell id="9LiMOaUNixQt_38JYWJo-7" value="" style="group;fontStyle=1" vertex="1" connectable="0" parent="1">
          <mxGeometry x="620" y="320" width="45" height="30" as="geometry" />
        </mxCell>
        <mxCell id="9LiMOaUNixQt_38JYWJo-8" value="" style="endArrow=none;html=1;rounded=0;" edge="1" parent="9LiMOaUNixQt_38JYWJo-7">
          <mxGeometry width="50" height="50" relative="1" as="geometry">
            <mxPoint y="21.769999999999982" as="sourcePoint" />
            <mxPoint x="40" y="22.19999999999999" as="targetPoint" />
          </mxGeometry>
        </mxCell>
        <mxCell id="9LiMOaUNixQt_38JYWJo-9" value="" style="endArrow=none;html=1;rounded=0;" edge="1" parent="9LiMOaUNixQt_38JYWJo-7">
          <mxGeometry width="50" height="50" relative="1" as="geometry">
            <mxPoint y="22" as="sourcePoint" />
            <mxPoint as="targetPoint" />
          </mxGeometry>
        </mxCell>
        <mxCell id="9LiMOaUNixQt_38JYWJo-10" value="" style="endArrow=none;html=1;rounded=0;" edge="1" parent="9LiMOaUNixQt_38JYWJo-7">
          <mxGeometry width="50" height="50" relative="1" as="geometry">
            <mxPoint x="40" y="22" as="sourcePoint" />
            <mxPoint x="40" as="targetPoint" />
          </mxGeometry>
        </mxCell>
        <mxCell id="9LiMOaUNixQt_38JYWJo-11" value="&lt;b&gt;LALT&lt;/b&gt;" style="text;html=1;align=center;verticalAlign=middle;resizable=0;points=[];autosize=1;strokeColor=none;fillColor=none;" vertex="1" parent="9LiMOaUNixQt_38JYWJo-7">
          <mxGeometry x="-5" width="50" height="30" as="geometry" />
        </mxCell>
        <mxCell id="9LiMOaUNixQt_38JYWJo-22" value="" style="endArrow=none;html=1;rounded=0;exitX=0.033;exitY=0.331;exitDx=0;exitDy=0;exitPerimeter=0;" edge="1" parent="1" source="9LiMOaUNixQt_38JYWJo-25">
          <mxGeometry width="50" height="50" relative="1" as="geometry">
            <mxPoint x="215" y="187" as="sourcePoint" />
            <mxPoint x="260" y="187" as="targetPoint" />
          </mxGeometry>
        </mxCell>
        <mxCell id="9LiMOaUNixQt_38JYWJo-23" value="" style="endArrow=none;html=1;rounded=0;exitX=0.331;exitY=-0.01;exitDx=0;exitDy=0;exitPerimeter=0;" edge="1" parent="1">
          <mxGeometry width="50" height="50" relative="1" as="geometry">
            <mxPoint x="220" y="202.85000000000005" as="sourcePoint" />
            <mxPoint x="220.07" y="187.15" as="targetPoint" />
          </mxGeometry>
        </mxCell>
        <mxCell id="9LiMOaUNixQt_38JYWJo-25" value="&lt;b&gt;esc&lt;/b&gt;" style="text;html=1;align=center;verticalAlign=middle;resizable=0;points=[];autosize=1;strokeColor=none;fillColor=none;" vertex="1" parent="1">
          <mxGeometry x="219" y="177" width="40" height="30" as="geometry" />
        </mxCell>
        <mxCell id="9LiMOaUNixQt_38JYWJo-29" value="Text" style="text;html=1;align=center;verticalAlign=middle;resizable=0;points=[];autosize=1;strokeColor=none;fillColor=none;" vertex="1" parent="1">
          <mxGeometry x="285" y="-262" width="50" height="30" as="geometry" />
        </mxCell>
      </root>
    </mxGraphModel>
  </diagram>
</mxfile>
